<svg xmlns="http://www.w3.org/2000/svg" width="18.719" height="18.719" viewBox="0 0 18.719 18.719"><path d="M12.89,4.679a8.254,8.254,0,0,0-2.817.47l.454-4.5A.6.6,0,0,0,9.846,0,5.888,5.888,0,0,0,4.679,5.829a8.254,8.254,0,0,0,.47,2.817l-4.5-.454A.6.6,0,0,0,0,8.872a5.888,5.888,0,0,0,5.824,5.167,8.254,8.254,0,0,0,2.817-.47l-.454,4.5a.6.6,0,0,0,.68.644,5.888,5.888,0,0,0,5.167-5.824,8.254,8.254,0,0,0-.47-2.817l4.5.454a.6.6,0,0,0,.644-.68A5.888,5.888,0,0,0,12.89,4.679Zm-3.531,5.85a1.17,1.17,0,1,1,1.17-1.17A1.17,1.17,0,0,1,9.359,10.529Z" transform="translate(0 0)"/></svg>