<svg xmlns="http://www.w3.org/2000/svg" width="15.267" height="20.356" viewBox="0 0 15.267 20.356"><path d="M13.359,2.545H10.178a2.545,2.545,0,1,0-5.089,0H1.908A1.909,1.909,0,0,0,0,4.453V18.448a1.909,1.909,0,0,0,1.908,1.908h11.45a1.909,1.909,0,0,0,1.908-1.908V4.453A1.909,1.909,0,0,0,13.359,2.545ZM7.634,1.59a.954.954,0,1,1-.954.954A.952.952,0,0,1,7.634,1.59Zm4.819,9.216L6.767,16.444a.478.478,0,0,1-.676,0L2.807,13.128a.478.478,0,0,1,0-.676L3.94,11.331a.478.478,0,0,1,.676,0L6.445,13.18,10.659,9a.478.478,0,0,1,.676,0l1.121,1.129A.478.478,0,0,1,12.452,10.806Z"/></svg>