<svg xmlns="http://www.w3.org/2000/svg" width="14.693" height="15.785" viewBox="0 0 14.693 15.785"><g transform="translate(5527.407 16007.004)"><path d="M134.375,34.128a1.078,1.078,0,0,0-1.075-1.075h-.627l.967.914-.251.251-1.254-1.183h-.914l.322.3c.233.215.484.448.663.627l-.251.251c-.161-.161-.412-.394-.645-.609s-.43-.394-.591-.555h-.9c.358.322.788.735.967.914l-.251.251c-.233-.233-.9-.842-1.254-1.183H128.5l.143.143c.287.3.591.627.753.788l-.251.251c-.179-.179-.466-.484-.753-.788l-.358-.376H127.1l.107.125c.287.3.591.627.753.788l-.251.251c-.179-.179-.484-.484-.77-.788l-.358-.376h-.932l.125.125c.3.3.591.627.77.788l-.251.251c-.179-.179-.466-.484-.77-.788l-.358-.376h-.932l.036.036c.34.358.681.717.86.878l-.251.251c-.179-.179-.52-.52-.86-.878l-.3-.287H122.8l.215.215c.251.269.52.538.681.7l-.251.269-.7-.7-.448-.484h-.932l.9.914-.251.269-1.039-1.057a1.06,1.06,0,0,0-.573.95v.717h13.976Z" transform="translate(-5647.806 -16040.039)"/><path d="M120.4,100.8h13.976v.717H120.4Z" transform="translate(-5647.807 -16105.635)"/><path d="M121,136.068l1.021-1.039.269.269-.9.9h.9l1.165-1.165.251.269-.9.9h.914l1.165-1.165.251.269-.9.9h.914l1.165-1.165.251.269-.9.9h.914l1.165-1.165.251.269-.9.9h.914l1.165-1.165.251.269-.9.9h.914l1.165-1.165.251.269-.9.9h.914l1.165-1.165.18.269-.9.9h.914l1.165-1.165.251.269-.9.9h.538a1.078,1.078,0,0,0,1.075-1.075V134.4H120.4v.717a1.077,1.077,0,0,0,.591.95Z" transform="translate(-5647.811 -16138.162)"/><path d="M155.7,200.516h-.627l.968.914-.251.269-1.254-1.183h-.914l.322.3c.233.215.484.448.663.627l-.251.251c-.161-.161-.412-.394-.645-.609s-.43-.394-.609-.573h-.9c.358.322.788.735.968.932l-.251.251c-.233-.233-.9-.842-1.254-1.183h-.788l.126.125c.287.3.591.627.753.788l-.251.251c-.179-.179-.466-.484-.753-.806l-.358-.376h-.932l.125.125c.287.3.591.627.753.788l-.251.251c-.179-.179-.484-.484-.77-.806l-.358-.376h-.932l.125.126c.3.3.591.627.77.788l-.251.251c-.179-.179-.466-.484-.77-.788l-.358-.376h-.95l.036.036c.34.358.681.717.86.878l-.251.251c-.179-.179-.52-.538-.86-.878l-.269-.251H145.2l.215.215c.251.269.52.538.681.7l-.251.269c-.179-.179-.43-.448-.7-.7l-.448-.484h-.932l.9.914-.251.269-1.039-1.057a1.06,1.06,0,0,0-.573.95v.717h13.976v-.717a1.078,1.078,0,0,0-1.075-1.075Z" transform="translate(-5669.487 -16202.126)"/><path d="M142.8,268.8h13.976v.717H142.8Z" transform="translate(-5669.49 -16268.26)"/><path d="M142.8,303.118a1.077,1.077,0,0,0,.591.95l1.021-1.039.269.269-.9.9h.9l1.165-1.165.251.269-.9.9h.914l1.165-1.165.251.269-.9.9h.914l1.165-1.165.251.269-.9.9h.914l1.165-1.165.251.269-.9.9h.914l1.165-1.165.251.269-.9.9h.914l1.165-1.165.251.269-.9.9h.914l1.165-1.165.18.269-.9.9h.914l1.165-1.165.251.269-.9.9h.538a1.078,1.078,0,0,0,1.075-1.075V302.4H142.8Z" transform="translate(-5669.49 -16300.786)"/><path d="M133.3,369.055h-.627l.967.914-.251.251-1.254-1.183h-.914l.322.3c.233.215.484.448.663.627l-.251.251c-.161-.161-.412-.394-.645-.609s-.43-.412-.609-.573h-.9c.358.323.788.735.968.932l-.251.251c-.233-.233-.9-.842-1.254-1.183h-.788l.125.126c.287.3.591.627.753.788l-.251.251c-.179-.179-.466-.484-.753-.788l-.358-.376h-.932l.126.126c.287.3.591.627.753.788l-.251.251c-.179-.179-.484-.484-.77-.788l-.358-.376h-.932l.125.126c.3.3.591.627.77.788l-.251.251c-.179-.179-.466-.484-.77-.788l-.358-.376h-.95l.036.036c.34.358.681.717.86.878l-.251.251c-.179-.179-.52-.52-.86-.878l-.269-.269H122.8l.215.215c.251.269.52.538.681.7l-.251.269-.7-.7-.448-.484h-.932l.9.914-.251.269-1.039-1.057a1.06,1.06,0,0,0-.573.95v.717h13.976v-.717a1.078,1.078,0,0,0-1.075-1.075Z" transform="translate(-5647.804 -16365.291)"/><path d="M120.4,436.8h13.976v.717H120.4Z" transform="translate(-5647.807 -16430.885)"/><path d="M120.4,471.118a1.077,1.077,0,0,0,.591.95l1.021-1.039.269.269-.9.9h.9l1.165-1.165.251.269-.9.9h.914l1.165-1.165.251.269-.9.9h.914l1.165-1.165.251.269-.9.9h.914l1.165-1.165.251.269-.9.9h.914l1.165-1.165.251.269-.9.9h.914l1.165-1.165.251.269-.9.9h.914l1.165-1.165.18.269-.9.9h.914l1.165-1.165.251.269-.9.9h.538a1.078,1.078,0,0,0,1.075-1.075V470.4H120.4Z" transform="translate(-5647.807 -16463.412)"/></g></svg>