<svg xmlns="http://www.w3.org/2000/svg" width="19.938" height="15.95" viewBox="0 0 19.938 15.95"><path d="M18.221,10.661l-.467-1.167-.828-2.07A4.63,4.63,0,0,0,12.606,4.5H7.331A4.63,4.63,0,0,0,3.012,7.424l-.828,2.07-.467,1.167A2.653,2.653,0,0,0,0,13.14v1.994a2.637,2.637,0,0,0,.665,1.742v2.246A1.329,1.329,0,0,0,1.994,20.45H3.323a1.329,1.329,0,0,0,1.329-1.329V17.792H15.286v1.329a1.329,1.329,0,0,0,1.329,1.329h1.329a1.329,1.329,0,0,0,1.329-1.329V16.875a2.635,2.635,0,0,0,.665-1.742V13.14A2.653,2.653,0,0,0,18.221,10.661ZM5.48,8.412A1.994,1.994,0,0,1,7.331,7.158h5.275a1.994,1.994,0,0,1,1.851,1.253l.828,2.07H4.652l.828-2.07ZM3.323,15.125A1.254,1.254,0,0,1,1.994,13.8a1.254,1.254,0,0,1,1.329-1.325,2.557,2.557,0,0,1,1.994,1.988C5.317,15.258,4.12,15.125,3.323,15.125Zm13.292,0c-.8,0-1.994.133-1.994-.663a2.557,2.557,0,0,1,1.994-1.988A1.254,1.254,0,0,1,17.944,13.8a1.254,1.254,0,0,1-1.329,1.325Z" transform="translate(0 -4.5)"/></svg>