<svg xmlns="http://www.w3.org/2000/svg" width="180" height="49.234" viewBox="0 0 180 49.234"><g transform="translate(-44 -19)"><g transform="translate(44 19)"><path d="M48.032,24.617q0,12.1.011,24.186c0,.335-.043.436-.415.431q-23.617-.016-47.229,0c-.335,0-.394-.085-.394-.4Q.013,24.62,0,.41C0,.021.122,0,.441,0Q24.035.016,47.622,0c.362,0,.42.085.42.426q-.016,12.1-.011,24.186ZM9.117,3.66a.665.665,0,0,0-.1.016c-.239.1-.484.186-.723.282a5.142,5.142,0,0,1-1.936.122.861.861,0,0,0-1.1.378,9.98,9.98,0,0,0-.734,1.995,2.918,2.918,0,0,0-.106,1.66c.186.543.128,1.1.271,1.638a5.483,5.483,0,0,0,.489,1.856c.112.559.218,1.122.34,1.676.064.287-.027.436-.314.495a2.6,2.6,0,0,0-.622.207.611.611,0,0,0-.4.644c.074.3.351.3.612.176.053-.021.133.021.2.032.032.053.064.112.1.165-.176.207-.367.4-.521.617a6.015,6.015,0,0,0-1.5,3.447,1.435,1.435,0,0,0,.011,1.4,4.99,4.99,0,0,0,1.7,3.239c.09.271.59.186.516.6-.106.154-.351.191-.362.426-.84.346-1.574.995-2.59.862-.271-.037-.314.287-.176.463.4.511.181.968-.053,1.436a2.128,2.128,0,0,0-.324,1.277c.117.415.41.213.622.149a10.118,10.118,0,0,0,2.271-1.053c.266.064.532.122.8.186.1.4-.176.612-.457.777a6.632,6.632,0,0,1-2.34.878,1.194,1.194,0,0,0-.973.511,1.127,1.127,0,0,0,1.016,1.638c.117.011.245-.011.362.005.144.016.351-.09.41.1.053.16-.165.181-.261.271-.324.309-.745.484-1.048.824a.475.475,0,0,0-.053.676,5.25,5.25,0,0,0,1.691,1.479,3.8,3.8,0,0,1,1.069.691c-.037.112-.074.223-.106.335-.553,2.213-1.112,4.431-1.654,6.644a12.782,12.782,0,0,1-.676,1.915c-.293.7-.229.782.543.7.255-.027.505-.085.755-.128,1.229-.122,2.468-.186,3.686-.383,1.75-.287,3.516-.457,5.277-.585,1.819-.133,3.649-.2,5.473-.3,1.7-.1,3.41-.016,5.112-.016.2.223.489-.005.7.154a1.086,1.086,0,0,0,1.16.16,4.721,4.721,0,0,1,.612-.037c.66.032,1.319.074,1.979.117a22.847,22.847,0,0,1,4.133.229c.287.229.622.048.931.106,1.452.271,2.9.532,4.351.8a6.656,6.656,0,0,0,1.34.128c.064.154.2.1.309.1,1.814-.027,3.622-.053,5.431.1.473.043.936-.144,1.42-.112s.511-.064.261-.521a3.587,3.587,0,0,1-.638-1.117c-.218-.66-.463-1.309-.7-1.968-.064-.223-.122-.452-.191-.676a25.471,25.471,0,0,0-1.234-3.777,9.856,9.856,0,0,1-.521-4.138,7.325,7.325,0,0,1,.213-.814c.128-.25.239-.505.378-.745a.866.866,0,0,0,.117-.729,2.184,2.184,0,0,1-.074-.8,3.092,3.092,0,0,1,1.67-.622,1.065,1.065,0,0,0,.888-.718c-1.479.452-2.862.718-4.229,1.064a1.971,1.971,0,0,0-1.447.255.713.713,0,0,1-.106-.005c-.165-.133-.266-.1-.309.106-.681.223-1.367.436-2.043.681a.88.88,0,0,1-.4.059,7.828,7.828,0,0,0-2.638.511,2.6,2.6,0,0,0-.495.085c-.766.133-1.468.479-2.229.612a6.671,6.671,0,0,0-1.415.239,7.566,7.566,0,0,0-1.862.234c-.388-.144-.777-.287-1.138.064-.207.032-.394.181-.617.1-.037-.064-.074-.085-.117-.005-.064.005-.133.016-.2.021,0-.186-.09-.3-.271-.293-.218.016-.261.181-.255.367-.415.287-.894.037-1.33.149-.213,0-.3-.069-.324-.319-.037-.436.245-.707.426-1.032,1.106-.074,2.218-.106,3.314-.245a3.321,3.321,0,0,0,1.665-.468.877.877,0,0,0,.622-.426,1.875,1.875,0,0,0,.6-.372,3.491,3.491,0,0,1,2.941-.931,18.617,18.617,0,0,0,4.729.383,1.358,1.358,0,0,0,.941-.3c.58-.505,1.436-.6,1.894-1.282a.425.425,0,0,1,.069-.069,6.42,6.42,0,0,0,1.032-.941,1.309,1.309,0,0,0,.617-.521l.314-.234a.861.861,0,0,0,.707-1.005c0-.144,0-.282-.005-.426v-.612a2.588,2.588,0,0,0-.17-.941,4.7,4.7,0,0,1,.2-2.872c.229-.17.447-.356.686-.505a.5.5,0,0,0,.2-.7A3.718,3.718,0,0,1,44.7,17.6a1.718,1.718,0,0,0,.106-.383,20.929,20.929,0,0,0-.011-3.957,2.8,2.8,0,0,0,.08-1.42c0-.117-.154-.1-.25-.122a14.308,14.308,0,0,0-.42-3.005,4.593,4.593,0,0,0-.75-1.947c-.277-.5-.319-1.138-.867-1.489-.059-.037-.048-.186-.069-.287.08-.1.16-.2.239-.3a2.767,2.767,0,0,0,.989-.931,2.965,2.965,0,0,0,.293-.521c.133-.378-.154-.585-.383-.8a.431.431,0,0,0-.6-.059c-.362.3-.7.633-1.048.952-.441.191-.787.58-1.293.633A9.746,9.746,0,0,0,38.4,4.59a23.229,23.229,0,0,0-3.941-.1,21.817,21.817,0,0,0-2.888-.176,10.576,10.576,0,0,0-3.117-.234c-.351-.064-.707-.027-1.064-.069a17.689,17.689,0,0,0-2.138-.479.642.642,0,0,0-.489-.2c-.723-.048-1.441-.2-2.16-.271a9.673,9.673,0,0,0-1.7-.213h-.415a22.3,22.3,0,0,0-3.261-.176,28.568,28.568,0,0,0-6.048.58,5.576,5.576,0,0,0-1.862.394l-.207.032ZM45.745,27.1a1.923,1.923,0,0,1,.5.059c.144.053.223-.043.213-.106-.037-.287-.3-.41-.505-.516-.144-.069-.362-.3-.569-.053a1.263,1.263,0,0,1-1.1.521c-.085,0-.2,0-.17.122.021.09.074.144.218.122A6.005,6.005,0,0,1,45.75,27.1Z" fill="#fdfdfd"/><path d="M47.5,7.636c.021.1.011.245.069.287.548.351.59.984.867,1.489a.544.544,0,0,0-.293.5,4.913,4.913,0,0,0,.234,2.447c.261.521.207,1.176.66,1.622.112.888.223,1.771.34,2.66-.16.165-.112.266.09.324a21.33,21.33,0,0,1-.085,2.67c-.266.378.053.851-.2,1.234a3.438,3.438,0,0,1-1.138-.106,2.049,2.049,0,0,0-1.713-.293c-.117,0-.239.005-.356.011a.619.619,0,0,0-.1-.021c-.021-.362.074-.745-.218-1.09-.181.309-.053.606-.122.878a.233.233,0,0,0-.266-.016c0-.309-.117-.6-.133-.9a2.3,2.3,0,0,0-2.691-2.463,1.686,1.686,0,0,0-1.537.92.863.863,0,0,1-.628.606,6.623,6.623,0,0,1-.218-1.064c-.1-.521-.128-1.064-.7-1.41a19.38,19.38,0,0,0-1.989-.824c.005-.527.436-.378.723-.447.293,0,.606.117.888-.106a.936.936,0,0,0-.888-.149,6.491,6.491,0,0,0-1.362.128c-.649.059-1.09.638-1.745.654a.541.541,0,0,0-.543-.282c-.3.011-.6-.016-.9-.021.021-.33-.218-.266-.42-.293a12.974,12.974,0,0,0-2.479.287c.011-.149-.016-.271-.2-.293-.356-.032-.713-.1-1.069-.106-.75-.016-1.5,0-2.25,0a.97.97,0,0,0-.441-.112c-.819-.021-1.638-.053-2.457-.08-.027-.176-.165-.17-.3-.207-.537-.144-1.1-.037-1.633-.133a18.3,18.3,0,0,0-4.165-.447.412.412,0,0,0-.505.16c-.074,0-.149,0-.223.005-.324.011-.654,0-.979.037a1.15,1.15,0,0,0-1.064.691c-.165.468.218.745.532,1.016a.33.33,0,0,1,.074.074c.138.239.149.356-.191.463a11.935,11.935,0,0,0-2.106.824,2.3,2.3,0,0,0-.809-.106c-1.3.011-1.335-.032-1.346-1.314,0-.122,0-.239-.011-.362-.011-.149-.09-.324-.207-.33-.4-.021-.367-.372-.516-.585l-.144-.814c.016-1.3.037-2.606.037-3.915,0-.346.08-.633.415-.75s.388-.351.4-.638c.011-.223-.011-.447.021-.67.043-.319.223-.463.543-.309a1.5,1.5,0,0,0,1.213-.059c.25,0,.505.016.755,0,.271-.016.543-.069.585-.415a3.571,3.571,0,0,1,1.559-.314,9.741,9.741,0,0,0,1.878-.229,25.547,25.547,0,0,1,3.878-.218c.064.09.133.165.255.138.218.021.436.059.654.069.957.048,1.91.234,2.872.191.021.17.16.133.271.165.782.25,1.622.2,2.388.505a7.089,7.089,0,0,0,3.128.3,14.259,14.259,0,0,0,1.952.335c.426.271.926.149,1.378.271.84.234,1.686.436,2.532.66A25.4,25.4,0,0,0,40.7,8.8a11.273,11.273,0,0,0,6.787-1.154Z" transform="translate(-4.976 -2.668)" fill="#8a90c2"/><path d="M6.264,60.356a4.051,4.051,0,0,0-1.069-.691A5.187,5.187,0,0,1,3.5,58.186a.47.47,0,0,1,.053-.676c.3-.34.729-.516,1.048-.824.1-.09.309-.112.261-.271-.059-.191-.266-.08-.41-.1-.117-.016-.239.005-.362-.005A1.128,1.128,0,0,1,3.078,54.67a1.194,1.194,0,0,1,.973-.511,6.632,6.632,0,0,0,2.34-.878c.282-.165.553-.372.463-.777.074,0,.149-.011.223-.016.053.314.266.3.521.293.75-.021,1.415-.484,2.176-.4.346-.032.713.144,1.037-.112a4.257,4.257,0,0,1,2.543.883c.255.149.431.229.676.059.165.032.324.064.489.1a13.578,13.578,0,0,0,.213,2.856,22.762,22.762,0,0,0,1.032,3.665,10.212,10.212,0,0,0,1.42,2.176,3.558,3.558,0,0,0,3.048,1.441c.069.021.133.037.2.059a.275.275,0,0,0,.314.048l1.957-.128a5.4,5.4,0,0,0,3.947-1.1,3.874,3.874,0,0,0,1.479-1.947,1.292,1.292,0,0,0,.191-1.186.7.7,0,0,0-.17-.511c-.213-.213-.149-.42.069-.6.122-.117.277-.1.426-.112a19.328,19.328,0,0,0,3.277-.33c.069.011.1-.021.112-.085a.591.591,0,0,1,.085-.037c.266-.021.537-.037.8-.074a19.161,19.161,0,0,0,3.154-.84.969.969,0,0,0,.489-.074,2.308,2.308,0,0,1,1.569-.112c.314.686.644,1.346,1.553,1.346.447,0,.9-.005,1.346.021a4.216,4.216,0,0,1,1.457.17c-.33.633.25,1.1.314,1.66a.824.824,0,0,1-.426.835c-.33.165-.782-.005-1.032.372-.628.1-1.128.537-1.745.67a.251.251,0,0,0-.3.2c-.027.133.064.176.176.2.17.074.319.223.521.2a2.085,2.085,0,0,1,1.41.394.868.868,0,0,0,.436.144,1.778,1.778,0,0,1,1.473.989.444.444,0,0,1-.218.713,4.141,4.141,0,0,1-1.33.378,24.624,24.624,0,0,1-3.335.537c-2.282.037-4.559.229-6.766-.548a3.25,3.25,0,0,0-.761-.128,4.371,4.371,0,0,1-1.149-.234,5.083,5.083,0,0,0-3.91-.138,6.622,6.622,0,0,1-1.676.495,35.932,35.932,0,0,1-4.074.1,14.292,14.292,0,0,1-2.516-.17c-.729-.122-1.34-.521-2.053-.649a20.259,20.259,0,0,1-5.67-2.112,3.49,3.49,0,0,0-2.394-.686c-.293-.048-.388-.314-.527-.511a.6.6,0,0,0-.676-.309Zm32.808,3.218c.287.112.516-.011.809-.165a1.847,1.847,0,0,0-.8-.053h-.947c-.165-.037-.33-.069-.489-.106-1.1-.255-2.223-.372-3.34-.532-.867-.122-1.718-.33-2.58-.5-.394-.3-.282-.537.106-.729a9.149,9.149,0,0,1,1.548-.431c.282.005.569.1.835-.064.543-.053,1.08-.181,1.617-.218a12.931,12.931,0,0,0,3.67-1.064.3.3,0,0,0,.16-.181c.027-.117-.1-.106-.17-.138-.447-.207-.888-.431-1.335-.633a4.615,4.615,0,0,0-2.707-.181c-.447.1-.936-.117-1.356.213a3.739,3.739,0,0,0,1.394-.1,6.573,6.573,0,0,1,2.867.856c-.25.282-.463.569-.809.574-.479.011-.952.085-1.426.1a16.424,16.424,0,0,0-5.021.835,2.551,2.551,0,0,0-2.048,1.069q-.223.3.1.383a8.353,8.353,0,0,0,2.277.505c.644.043,1.3.043,1.931.144a29.13,29.13,0,0,0,4.809.394,3.515,3.515,0,0,0,.915.021Zm-32.207-8.7H4.87c.223.277.372.33.585.25a.881.881,0,0,1,.75.032.7.7,0,0,0,.681,0c.378-.032.761-.059,1.138-.09l2.787.016c.032.266.638.149.394.6a.853.853,0,0,1-.223.106,12.8,12.8,0,0,0-2.952.968,4.133,4.133,0,0,0-1.266.277c-.33.2-.872.255-.878.66,0,.431.5.628.878.819,1.186.559,2.521.628,3.718,1.154a20.366,20.366,0,0,0,3.676,1.128,10.742,10.742,0,0,0-1.665-.739c-1.319-.431-2.543-1.1-3.851-1.559a.437.437,0,0,1-.011-.468,4.22,4.22,0,0,1,.638-1.074A1.317,1.317,0,0,1,10,56.563a14.488,14.488,0,0,0,2.479-.846c.106-.021.239.027.3-.117.069-.011.138-.016.2-.027.234-.032.479-.122.5-.362.021-.266-.3-.367-.463-.4a5.65,5.65,0,0,0-2.2-.335c-.144,0-.282-.005-.426-.011a8.316,8.316,0,0,0-2.266.207c-.42.064-.84.133-1.255.2Z" transform="translate(-1.381 -24.462)" fill="#c5beb9"/><path d="M36.823,57.151a5.4,5.4,0,0,1-3.947,1.1c.053-.42-.218-.468-.537-.489-.771-.059-1.559.324-2.324-.069a.137.137,0,0,0-.2.09c-.027.1.053.144.112.2.138.133.452-.016.479.293a3.546,3.546,0,0,1-3.048-1.441,10.08,10.08,0,0,1-1.42-2.176A22.762,22.762,0,0,1,24.9,50.992a13.579,13.579,0,0,1-.213-2.856c.011-.106.027-.207.037-.314.553.16.59.128.617-.426a2.41,2.41,0,0,1,.069-.915c.431-.926.628-1.936,1.122-2.835.016-.027-.027-.08-.043-.122-.213,0-.223.282-.426.271a2.272,2.272,0,0,1,1.3-1.447c.612-.229.628-.309.34-.713.271-.223.59-.09.888-.112.207-.016.388-.016.351-.3.516-.122.947.2,1.426.282,1.441.266,2.862.6,4.282.957,0,.42.2.59.606.441a.591.591,0,0,1,.527.053c-.1.16-.149.309.08.4s.463.17.7.255c.043.133.165.138.277.181.282.117.569.245.6.617-.112.064-.245.17-.176.277a10.734,10.734,0,0,1,.447,1.4,5.3,5.3,0,0,1,.67,2.7c-.016.2-.048.426.234.5a1.02,1.02,0,0,0-.112.777c-.346.723-.367.734-1.218.574-.543-.1-.84.138-.872.7-.181.324-.468.59-.426,1.032.021.25.112.319.324.319-.005.723.537.372.819.362a7.636,7.636,0,0,1,1.261-.16c-.218.176-.282.383-.069.6a.68.68,0,0,1,.17.511c-.213.021-.261.191-.314.351A4.576,4.576,0,0,1,37.11,56.29a.952.952,0,0,0-.287.84Zm-8.91-11.085c-.351.011-.4.245-.388.527-.213.511-.537,1.005-.138,1.58.074.106-.027.223-.165.314a.934.934,0,0,0-.441.957,5.985,5.985,0,0,1-.016.872.259.259,0,0,0-.25.149A1.469,1.469,0,0,0,27.36,52c.234.271.633.372.787.729A1.73,1.73,0,0,0,28.8,54.2c.08.027.191-.043.287-.069L29.456,54c.08.043.138.138.25.085.154.112.378.319.436-.005.027-.154-.106-.388.112-.452s.261.223.378.351a.648.648,0,0,1,.165.309c.048.282.293.271.468.309s.266-.144.356-.287c.176-.3.218-.686.543-.894.064.1.117.266.25.1a.769.769,0,0,0,.133-.676,5.5,5.5,0,0,0-.388-.952c.287-.511-.117-1.021,0-1.537.064-.271-.069-.34-.335-.346-.42-.011-.84-.085-1.3-.138a.983.983,0,0,1,.606-.282c.34-.085.782-.154.7-.67a3.853,3.853,0,0,0-.4-1.293c-.074-.133-.149-.234-.319-.165a1.36,1.36,0,0,1-.027-.144c.42-.186.176-.4.016-.59-.09-.112-.255-.154-.271-.33.16-.069.335.181.468,0,.074-.106-.032-.229-.09-.33a2.285,2.285,0,0,0-2.973-.729c-.234.149-.426.34-.319.66a.065.065,0,0,1-.005.085Z" transform="translate(-11.557 -19.284)" fill="#6b5f57"/><path d="M17.7,39.891c.287.4.271.484-.34.713a2.272,2.272,0,0,0-1.3,1.447c-.043.277-.293.41-.426.622-.085,0-.17,0-.255-.005-.585-.011-.585-.016-.378-.537a.461.461,0,0,0,.005-.149c.234-.122.282-.372.383-.574a.448.448,0,0,0-.032-.527c-.154-.165-.356-.1-.527-.043-.223.069-.426.186-.644.277A6.244,6.244,0,0,0,12.2,42.247c-.319.25-.835.181-1.027.638h0c-.628.09-.91.644-1.5,1.005h.665c.181.027.388,0,.532.133a1.065,1.065,0,0,0,1.261.08,1.226,1.226,0,0,1,.489-.09c.245.223.489.069.739,0,.138.059.181.2.266.3.117.144.42.176.314.457s-.362.277-.606.282c-.3-.09-.537-.356-.883-.309-.66.1-1.33-.069-1.995.064a3,3,0,0,0-1.739-.218.7.7,0,0,0-.239.441c-.106.016-.186.059-.2.181-.282.324-.729.144-1.048.346-.074,0-.149.011-.223.016-.266-.064-.532-.122-.8-.186A3.842,3.842,0,0,1,7.631,44.37a3.454,3.454,0,0,0,1.229-.67c.426-.335.846-.681,1.271-1.011.106-.08.293-.144.2-.287s-.234,0-.356.048a9.27,9.27,0,0,0-1.452,1c-.388.234-.814.33-1.2.574A31.389,31.389,0,0,1,3.849,46.1a1.222,1.222,0,0,1-.521.181,2.109,2.109,0,0,1,.324-1.277c.234-.473.457-.926.053-1.436-.138-.176-.09-.495.176-.463,1.016.133,1.75-.516,2.59-.862.415.277.787-.059,1.17-.112a2.422,2.422,0,0,0,1.479-.707c.3-.207.606-.42.915-.628a33.188,33.188,0,0,1,4.043-2.059,9.851,9.851,0,0,1,4.239-1.16,2.691,2.691,0,0,0,1.346-.117c.138,0,.277,0,.41-.005a.678.678,0,0,1,.106.005c1,.133,2.005.234,3.016.277.186.314.473.1.713.138.266.048.543.048.809.09.367.053.755.239,1.138.032l.324.112c.09.5.59.569.91.809.287.218.314.441.112.628-.479.447-.846,1.064-1.59,1.128-.324.027-.649.027-.973.037-1.42-.356-2.84-.691-4.282-.957-.473-.085-.9-.4-1.426-.282-.17-.021-.335-.048-.505-.059a5.148,5.148,0,0,0-2.8.356c-.33-.016-.676-.09-.952.176-.255.074-.516.144-.771.223a6.363,6.363,0,0,0-3.138,1.59c-.09.1-.335.186-.186.346s.282-.059.426-.138c.6-.335,1.1-.8,1.734-1.09.67-.3,1.4-.394,2.053-.707a1.868,1.868,0,0,0,1.149-.191,9.1,9.1,0,0,0,1.745-.1Z" transform="translate(-1.551 -17.534)" fill="#d6dcad"/><path d="M8.49,14.847c.149.213.117.564.516.585.117.005.2.181.207.33.005.122.011.239.011.362.005,1.282.048,1.324,1.346,1.314a2.3,2.3,0,0,1,.809.106c-.027.191.191.245.223.4a.478.478,0,0,0,.261.452,2.174,2.174,0,0,1,.931,1.255,8.259,8.259,0,0,1,.463,3.011c-.048.309.053.505.415.452a3.762,3.762,0,0,1,.032.59c.069.457-.4.84-.149,1.3a5.51,5.51,0,0,1-.532.266A7.045,7.045,0,0,1,10.543,26.3c0-.888.011-1.777.011-2.66.346.021.356-.223.314-.447-.122-.686-.324-1.362-.394-2.053a1.432,1.432,0,0,0-.606-1.021c-.293-.229-.548-.128-.67.229l-.191.048c-1.005-.186-1.521.085-1.83,1.3a6.11,6.11,0,0,0,.516,5.069c.245.378.016.372-.245.394a4.966,4.966,0,0,1-1.7-3.239,3.566,3.566,0,0,0-.011-1.4,6.054,6.054,0,0,1,1.5-3.447c.16-.218.346-.415.521-.617.08-.027.191-.032.229-.09.388-.543.9-.452,1.431-.3a2.883,2.883,0,0,0,.9.186c.09,0,.186-.016.176-.128,0-.048-.08-.122-.138-.133a6.272,6.272,0,0,0-1.84-.351.852.852,0,0,0-.851.649c-.069-.011-.149-.053-.2-.032-.266.117-.543.128-.612-.176a.609.609,0,0,1,.4-.644,2.852,2.852,0,0,1,.622-.207c.293-.064.378-.213.314-.495-.122-.559-.229-1.117-.34-1.676a2.656,2.656,0,0,0-.489-1.856c-.149-.532-.085-1.1-.271-1.638A2.918,2.918,0,0,1,7.2,9.895,9.98,9.98,0,0,1,7.931,7.9a.863.863,0,0,1,1.1-.378A5.028,5.028,0,0,0,10.969,7.4v.282a1.527,1.527,0,0,1-1.213.059c-.319-.154-.5-.005-.543.309-.032.218-.011.447-.021.67-.016.287-.069.527-.4.638s-.415.4-.415.75c0,1.3-.021,2.606-.037,3.915-.239-.106-.266-.106-.261-.053.043.479-.144.995.207,1.452.186-.186,0-.441.2-.585Z" transform="translate(-2.687 -3.464)" fill="#6b5f57"/><path d="M76.261,33.124c.261-.378-.059-.856.2-1.234.25.133-.074.543.3.617a3.707,3.707,0,0,0,.495,2.021.491.491,0,0,1-.2.7c-.239.149-.457.335-.686.505-.261-.314-.394.106-.6.1-.048-.09-.085-.2-.207-.2-.681-.011-1.362-.016-2.043-.011-.138,0-.064.122-.053.2a.359.359,0,0,0,.053.622,8.264,8.264,0,0,1,.809.612c.351.324.452.17.479-.207.468.261.436-.346.713-.41.16.106.09.277.106.42.069.564.138,1.133.218,1.7.048.335.2.149.324.053a2.588,2.588,0,0,1,.17.941c-.144.016-.207-.255-.34-.133-.117.106-.064.3-.021.441a.378.378,0,0,0,.367.309c0,.144,0,.282.005.426a1.669,1.669,0,0,0-.707,1.005l-.314.234a.715.715,0,0,0-.441-.1c-.2.027-.282.181-.351.34s0,.261.176.282a6.419,6.419,0,0,1-1.032.941c-.069-.383-.239-.372-.473-.122-.138.144-.223.362-.484.314-.426-.074-.676.2-.9.473-.133.16-.277.388-.452.394-.67.027-1.309.229-1.968.282-.1.005-.218.005-.255-.117s.064-.17.16-.218a5.959,5.959,0,0,1,.691-.34.7.7,0,0,0,.548-.766c.059-.25.362-.271.543-.548H69.639c-.021-.149.08-.426-.2-.362-.319.074-.644-.1-.947.059.138-.239.282-.479.42-.718.287.191.394.016.543-.213a22.392,22.392,0,0,0,1.293-3.314,5.149,5.149,0,0,1,1.628-2.362.459.459,0,0,0,.255-.367,3.276,3.276,0,0,1,.963-.176c.207-.032.463.138.612-.138.441-.016.878-.027,1.319-.048.926-.048,1.005-.186.633-1.027.452-.229.048-.564.112-.84Z" transform="translate(-32.059 -14.927)" fill="#6b5f57"/><path d="M65.231,78.721l-4.351-.8c-.309-.059-.644.122-.931-.106a.341.341,0,0,1,.165-.346.509.509,0,0,0,.245-.574A7.373,7.373,0,0,1,62,76.908a22.781,22.781,0,0,0,3.7.362c1.41.09,2.8.324,4.2.431a3.56,3.56,0,0,0,1.931-.3c.117.016.25.17.319-.074a2.665,2.665,0,0,0-.633-1.931c-.128.1.122.271-.069.351a7.313,7.313,0,0,1-.6-2.085,10.335,10.335,0,0,1-.436-2.878c.271.069.521.277.819.106a25.471,25.471,0,0,1,1.234,3.777c.069.223.128.452.191.676-.452.021-.346.42-.25.559a8.86,8.86,0,0,1,.644,1.872c.191.479.426.718.941.649.25.457.218.553-.261.521s-.947.154-1.42.112c-1.809-.154-3.617-.128-5.431-.1-.106,0-.25.053-.309-.1.048-.191.4-.016.356-.261-.037-.2-.282-.133-.431-.2a3.231,3.231,0,0,0-.9-.069c-.309-.027-.388.128-.356.4Z" transform="translate(-28.061 -33.131)" fill="#6b5f57"/><path d="M11.556,35.042c0,.888-.011,1.777-.011,2.66-.133.277-.271.553-.4.83a5.168,5.168,0,0,1-2.165.628c.074-.415-.431-.324-.516-.6.261-.021.489-.016.245-.394A6.11,6.11,0,0,1,8.189,33.1c.309-1.213.819-1.484,1.83-1.3.048.1.1.17.2.043.33.112.8.122.824.559.064.9.532,1.723.521,2.638Z" transform="translate(-3.689 -14.862)" fill="#c5beb9"/><path d="M67.569,6.954a11.266,11.266,0,0,1-6.787,1.154,24.649,24.649,0,0,1-3.356-.431c-.84-.223-1.691-.426-2.532-.66-.452-.128-.957,0-1.378-.271.218-.122.426-.239.106-.484-.059-.048-.074-.144-.112-.218a10.59,10.59,0,0,1,3.117.234c-.016.314.213.394.452.463a9.353,9.353,0,0,0,2.181.112c.293.011.255-.207.255-.394a22.691,22.691,0,0,1,3.941.1.348.348,0,0,0,.468.282c.8-.2,1.606-.415,2.4-.66a2.1,2.1,0,0,0,.707-.41c.128-.106.436-.293.032-.473.346-.319.686-.649,1.048-.952a.426.426,0,0,1,.6.059c.229.218.516.426.383.8a3.2,3.2,0,0,1-.3.521c-.622-.117-1.176.4-.989.931-.08.1-.16.2-.239.3Zm-7.495.824.016-.144a1.335,1.335,0,0,0-1-.122.207.207,0,0,0-.133.133c-.011.106.085.133.176.133Z" transform="translate(-25.047 -1.986)" fill="#6b5f57"/><path d="M73.436,60.259a4.216,4.216,0,0,0-1.457-.17c-.447-.032-.894-.021-1.346-.021-.91,0-1.245-.66-1.553-1.346a.844.844,0,0,0,.2-.032,12.03,12.03,0,0,1,3.128-.862,8.038,8.038,0,0,0,.793-.16c.8-.16,1.532-.745,2.41-.388a2.185,2.185,0,0,0,.074.8.828.828,0,0,1-.117.729c-.138.239-.255.495-.378.745-.287-.266-.319.043-.415.191-.181.271-.128.686-.505.84-.043-.255-.181-.356-.436-.293l-.4-.032Z" transform="translate(-32.335 -26.759)" fill="#6b5f57"/><path d="M6.9,67.465a.6.6,0,0,1,.676.309c.133.2.229.468.527.511-.133.186-.388.271-.378.574a6.8,6.8,0,0,1-.378,2.191c-.484,1.7-.883,3.426-1.484,5.09.069.277-.144.516-.1.787-.25.043-.5.1-.755.128-.771.08-.835,0-.543-.7a12.782,12.782,0,0,0,.676-1.915c.543-2.218,1.1-4.431,1.654-6.644.027-.112.069-.223.106-.335Z" transform="translate(-2.016 -31.571)" fill="#6b5f57"/><path d="M7.034,83.558c-.048-.271.165-.511.1-.787a30.58,30.58,0,0,0,4.362-.133,29.71,29.71,0,0,1,4.654-.394.745.745,0,0,0,.154,0c1.186-.473,2.452-.255,3.676-.388,1.388-.149,2.793-.128,4.186-.213,1.149-.074,2.3-.027,3.457-.032.122.314.059.479-.324.447a.883.883,0,0,0-.713.213c-1.7,0-3.415-.08-5.112.016-1.824.1-3.654.176-5.473.3-1.766.128-3.527.3-5.277.585-1.218.2-2.457.261-3.686.383Z" transform="translate(-3.289 -38.196)" fill="#3c362f"/><path d="M64.706,52.936a.7.7,0,0,1-.548.766,6.412,6.412,0,0,0-.691.34c-.1.048-.2.085-.16.218s.154.128.255.117c.66-.053,1.3-.255,1.968-.282.176-.005.319-.234.452-.394.229-.277.484-.548.9-.473.261.048.351-.17.484-.314.234-.245.4-.261.473.122a.425.425,0,0,0-.069.069c-.457.681-1.314.777-1.894,1.282a1.357,1.357,0,0,1-.941.3,19.113,19.113,0,0,1-4.729-.383,3.491,3.491,0,0,0-2.941.931,1.875,1.875,0,0,1-.6.372c-.181-.032-.245-.106-.112-.266.069-.085.223-.165.138-.293s-.25-.085-.378-.043c-.154.048-.266.064-.293-.133.521-.245,1.043-.489,1.559-.739l1.649-.383a2.82,2.82,0,0,0,1.665-.027,1.7,1.7,0,0,0,2.048.17c.58-.324,1.16-.644,1.745-.968Z" transform="translate(-26.227 -24.686)" fill="#3c362f"/><path d="M73.8,56.2c-.878-.351-1.617.229-2.41.388-.261.053-.532.133-.793.16a12.242,12.242,0,0,0-3.128.862,1.233,1.233,0,0,1-.2.032,2.278,2.278,0,0,0-1.569.112.969.969,0,0,1-.489.074c0-.1-.005-.2-.011-.293a7.828,7.828,0,0,1,2.638-.511.959.959,0,0,0,.4-.059c.676-.245,1.362-.457,2.043-.681.133.059.213-.053.309-.106a.713.713,0,0,1,.106.005,2.05,2.05,0,0,0,1.447-.255c1.367-.346,2.75-.612,4.229-1.064a1.072,1.072,0,0,1-.888.718,3.077,3.077,0,0,0-1.67.622Z" transform="translate(-30.519 -25.679)" fill="#3c362f"/><path d="M26.785,5.394a26.252,26.252,0,0,0-3.878.218,9.741,9.741,0,0,1-1.878.229V5.565a28.5,28.5,0,0,1,6.048-.58,23.056,23.056,0,0,1,3.261.17c.011.069.021.144.106.149s.1-.074.112-.144h.2c.037.053.059.128.112.16.1.064.319,0,.277.213-.032.154-.191.176-.324.207-.08.021-.165.037-.245.053-.963.043-1.915-.144-2.872-.191-.218-.011-.436-.048-.654-.069-.032-.149-.106-.213-.255-.138Z" transform="translate(-9.844 -2.33)" fill="#3c362f"/><path d="M38.97,5.947c.08-.016.165-.037.245-.053.133-.032.293-.059.324-.207.043-.218-.176-.149-.277-.213a.53.53,0,0,1-.112-.16,9.2,9.2,0,0,1,1.7.213c.718.074,1.436.223,2.16.271A.635.635,0,0,1,43.5,6c-.032.293.059.426.388.426a.856.856,0,0,1,.867.484,7.089,7.089,0,0,1-3.128-.3c-.766-.3-1.612-.255-2.388-.505-.106-.037-.25,0-.271-.165Z" transform="translate(-18.241 -2.484)" fill="#6b5f57"/><path d="M55.992,82.064a.511.511,0,0,1-.245.574.332.332,0,0,0-.165.346,23.367,23.367,0,0,0-4.133-.229c-.021-.112-.128-.138-.186-.2-.213-.245-.622-.319-.644-.723,1.782.25,3.59.043,5.378.234Z" transform="translate(-23.694 -38.303)" fill="#3c362f"/><path d="M83.336,25.234c-.372-.074-.048-.484-.3-.617a20.363,20.363,0,0,0,.085-2.67c.027-.122.048-.25-.09-.324-.112-.888-.223-1.771-.335-2.66-.043-.638-.069-1.282-.138-1.92-.032-.3-.09-.585.287-.7a14.358,14.358,0,0,1,.42,3.005,1.519,1.519,0,0,1,.09.6c.027.314-.1.644.08.947a20.928,20.928,0,0,1,.011,3.957,1.718,1.718,0,0,1-.106.383Z" transform="translate(-38.634 -7.649)" fill="#3c362f"/><path d="M46.715,59.163c.032-.559.33-.8.872-.7.851.16.872.149,1.218-.574A10.008,10.008,0,0,0,50.3,57.87c.383.165.713.489,1.2.3.218-.08.16.154.191.266a3.254,3.254,0,0,1-1.665.468c-1.1.144-2.207.17-3.314.245Z" transform="translate(-21.864 -27.088)" fill="#3c362f"/><path d="M3.335,50.592a1.222,1.222,0,0,0,.521-.181,32.232,32.232,0,0,0,3.473-2.08c.383-.245.814-.34,1.2-.574a9.645,9.645,0,0,1,1.452-1c.128-.048.271-.181.356-.048s-.09.207-.2.287c-.431.33-.851.67-1.271,1.011a3.409,3.409,0,0,1-1.229.67A3.843,3.843,0,0,0,6.224,49.7a10.245,10.245,0,0,1-2.271,1.053c-.213.059-.505.266-.622-.149Z" transform="translate(-1.559 -21.837)" fill="#3c362f"/><path d="M78.817,62.592c.378-.154.324-.569.505-.84.1-.149.128-.452.415-.191-.069.271-.17.537-.213.814a9.867,9.867,0,0,0,.521,4.138c-.3.17-.553-.037-.819-.106a3.166,3.166,0,0,1-.128-.739,9.939,9.939,0,0,0-.319-2.128c0-.282.005-.564.011-.846A.709.709,0,0,0,78.817,62.592Z" transform="translate(-36.876 -28.768)" fill="#3c362f"/><path d="M47.422,81.668c.021.41.436.479.644.723.059.064.165.1.186.2-.66-.037-1.319-.085-1.979-.117a5.9,5.9,0,0,0-.612.037,1.631,1.631,0,0,0-1.16-.16c-.213-.16-.505.074-.7-.154a.883.883,0,0,1,.713-.213c.378.032.447-.128.324-.447a8.462,8.462,0,0,1,2.59.112Z" transform="translate(-20.502 -38.142)" fill="#6b5f57"/><path d="M82.167,14.617c-.378.122-.319.4-.287.7.069.638.1,1.277.138,1.92-.452-.447-.394-1.1-.66-1.622a4.913,4.913,0,0,1-.234-2.447.544.544,0,0,1,.293-.5,4.62,4.62,0,0,1,.75,1.947Z" transform="translate(-37.954 -5.931)" fill="#6b5f57"/><path d="M48.61,62.476a7.564,7.564,0,0,0-1.261.16c-.282.016-.824.367-.819-.362.436-.112.91.138,1.33-.149.181.016.378.122.532-.08.064-.005.133-.016.2-.021a.862.862,0,0,1,.117.005c.223.08.41-.069.617-.1a2.5,2.5,0,0,0,1.138-.064,7.566,7.566,0,0,1,1.862-.234c.032.112.213.128.191.277l-.085.037c-.037.027-.074.053-.112.085a19.384,19.384,0,0,1-3.277.33c-.154.016-.3-.005-.426.112Z" transform="translate(-21.78 -28.848)" fill="#3c362f"/><path d="M48.74,7.53a.856.856,0,0,0-.867-.484c-.324,0-.42-.138-.388-.426a17.465,17.465,0,0,1,2.138.479c.356.043.713.005,1.064.069.037.074.053.176.112.218.319.245.112.362-.106.484a13.367,13.367,0,0,1-1.952-.335Z" transform="translate(-22.224 -3.099)" fill="#3c362f"/><path d="M75.806,6.22c.4.181.1.367-.032.473a2.2,2.2,0,0,1-.707.41c-.793.245-1.6.457-2.4.66a.349.349,0,0,1-.468-.282,9.611,9.611,0,0,1,2.314-.628C75.019,6.8,75.365,6.411,75.806,6.22Z" transform="translate(-33.796 -2.911)" fill="#3c362f"/><path d="M57.611,61.083c.021-.149-.16-.165-.191-.277a7.565,7.565,0,0,1,1.415-.239c.761-.133,1.463-.479,2.229-.612a3.1,3.1,0,0,1,.495-.085c0,.1.005.2.011.293a18.883,18.883,0,0,1-3.154.84c-.266.037-.537.048-.8.074Z" transform="translate(-26.877 -28.024)" fill="#6b5f57"/><path d="M84.881,82.43c-.516.069-.75-.17-.941-.649a8.759,8.759,0,0,0-.644-1.872c-.1-.138-.2-.543.25-.559.234.654.479,1.3.7,1.968a3.588,3.588,0,0,0,.638,1.117Z" transform="translate(-38.95 -37.143)" fill="#3c362f"/><path d="M54.858,57.934c-.037-.112.021-.351-.191-.266-.484.181-.814-.138-1.2-.3a1.415,1.415,0,0,1,1.144-.479c.043-.027.08-.053.122-.08a.85.85,0,0,1,.112-.027c.027.2.138.186.293.133.128-.043.293-.08.378.043s-.069.207-.138.293c-.133.16-.069.239.112.266a.909.909,0,0,1-.622.426Z" transform="translate(-25.029 -26.578)" fill="#6b5f57"/><path d="M62.258,8.251c0,.186.037.4-.255.394a8.808,8.808,0,0,1-2.181-.112c-.234-.069-.463-.149-.452-.463a22.818,22.818,0,0,1,2.888.176Z" transform="translate(-27.79 -3.777)" fill="#3c362f"/><path d="M82.369,41.889c-.128.1-.277.282-.324-.053-.08-.564-.144-1.133-.218-1.7-.016-.144.048-.309-.106-.42.064-.207.271-.356.25-.6.207,0,.34-.415.6-.1a4.7,4.7,0,0,0-.2,2.872Z" transform="translate(-38.252 -18.208)" fill="#3c362f"/><path d="M9.37,27.29a.857.857,0,0,1,.851-.649,6.272,6.272,0,0,1,1.84.351.215.215,0,0,1,.138.133c.011.112-.085.128-.176.128a2.915,2.915,0,0,1-.9-.186c-.532-.154-1.043-.239-1.431.3-.037.053-.149.059-.229.09-.032-.053-.064-.112-.1-.165Z" transform="translate(-4.386 -12.466)" fill="#8a90c2"/><path d="M9.616,45.128a5.247,5.247,0,0,0,2.165-.628c.027.085.032.181.128.229a2.394,2.394,0,0,1-1.479.707c-.383.059-.755.388-1.17.112.011-.234.255-.271.362-.426Z" transform="translate(-4.334 -20.83)" fill="#6b5f57"/><path d="M84.559,50.295a6,6,0,0,0-1.415.149c-.144.016-.2-.037-.218-.122-.027-.122.085-.128.17-.122a1.251,1.251,0,0,0,1.1-.521c.207-.255.426-.021.569.053.2.1.473.229.505.516.011.069-.069.16-.213.106a2.218,2.218,0,0,0-.5-.059Z" transform="translate(-38.815 -23.199)" fill="#3c362f"/><path d="M69.874,85.356c-.032-.266.048-.426.356-.4a3.031,3.031,0,0,1,.9.069c.149.059.4-.005.431.2.043.245-.309.069-.356.261a6,6,0,0,1-1.34-.128Z" transform="translate(-32.704 -39.766)" fill="#3c362f"/><path d="M15.585,7.422V7.14c.239-.1.484-.186.723-.282.043.059.074.037.1-.016l.207-.032c.1.064.2.128.3.2-.048.346-.314.4-.585.415-.25.016-.5,0-.755,0Z" transform="translate(-7.293 -3.188)" fill="#3c362f"/><path d="M80.358,7.946c-.186-.527.367-1.048.989-.931A2.724,2.724,0,0,1,80.358,7.946Z" transform="translate(-37.597 -3.276)" fill="#3c362f"/><path d="M17.843,6.67c-.1-.064-.2-.128-.3-.2A5.6,5.6,0,0,1,19.4,6.08v.277A3.5,3.5,0,0,0,17.843,6.67Z" transform="translate(-8.21 -2.846)" fill="#6b5f57"/><path d="M8.79,18.31a2.656,2.656,0,0,1,.489,1.856A5.483,5.483,0,0,1,8.79,18.31Z" transform="translate(-4.114 -8.571)" fill="#8a90c2"/><path d="M81.94,49.235a1.669,1.669,0,0,1,.707-1.005A.864.864,0,0,1,81.94,49.235Z" transform="translate(-38.355 -22.576)" fill="#3c362f"/><path d="M80.011,50.988c-.17-.021-.25-.106-.176-.282.069-.16.149-.309.351-.34a.707.707,0,0,1,.441.1A1.309,1.309,0,0,1,80.011,50.988Z" transform="translate(-37.357 -23.573)" fill="#3c362f"/><path d="M76.967,56.805a2.006,2.006,0,0,1-1.447.255A1.946,1.946,0,0,1,76.967,56.805Z" transform="translate(-35.35 -26.566)" fill="#d6dcad"/><path d="M84.08,23.533c-.176-.3-.053-.633-.08-.947a1.606,1.606,0,0,0-.09-.6c.1.021.25.005.25.122A2.8,2.8,0,0,1,84.08,23.533Z" transform="translate(-39.277 -10.293)" fill="#d6dcad"/><path d="M5.593,35.82a3.566,3.566,0,0,1,.011,1.4A1.435,1.435,0,0,1,5.593,35.82Z" transform="translate(-2.535 -16.767)" fill="#8a90c2"/><path d="M45.11,83.087a1.627,1.627,0,0,1,1.16.16A1.075,1.075,0,0,1,45.11,83.087Z" transform="translate(-21.115 -38.869)" fill="#c5beb9"/><path d="M82.893,46.754a.376.376,0,0,1-.367-.309c-.043-.144-.1-.335.021-.441.138-.117.2.154.34.133v.612Z" transform="translate(-38.606 -21.52)" fill="#3c362f"/><path d="M52.908,61.936A2.5,2.5,0,0,1,51.77,62C52.132,61.654,52.52,61.792,52.908,61.936Z" transform="translate(-24.233 -28.92)" fill="#d6dcad"/><path d="M49.552,62.147c-.149.2-.346.1-.532.08,0-.186.037-.356.255-.367.186-.011.277.106.271.293Z" transform="translate(-22.946 -28.955)" fill="#c5beb9"/><path d="M75.039,57.248c-.1.059-.17.165-.309.106C74.773,57.147,74.874,57.11,75.039,57.248Z" transform="translate(-34.98 -26.758)" fill="#d6dcad"/><path d="M38.748,5.305c-.011.069-.027.144-.112.144s-.1-.08-.106-.149h.218Z" transform="translate(-18.035 -2.481)" fill="#6b5f57"/><path d="M17.051,6.88c-.027.053-.059.069-.1.016A.665.665,0,0,0,17.051,6.88Z" transform="translate(-7.934 -3.22)" fill="#6b5f57"/><path d="M50.517,62.323a.861.861,0,0,1-.117-.005C50.443,62.244,50.48,62.265,50.517,62.323Z" transform="translate(-23.592 -29.148)" fill="#c5beb9"/><path d="M16.561,24.145c-.032-.154-.25-.213-.223-.4a11.538,11.538,0,0,1,2.106-.824c.34-.1.335-.223.191-.463a.33.33,0,0,0-.074-.074c-.314-.271-.7-.548-.532-1.016a1.159,1.159,0,0,1,1.064-.691c.324-.037.649-.027.979-.037a.2.2,0,0,0,.186.2c-.021.234.112.484.287.473.346-.016.66.186,1,.1.011.106.09.138.181.138a24.736,24.736,0,0,1,2.809.1c.676.032,1.346.069,2.021.1h-.005a17.11,17.11,0,0,1,1.809-.048c.186.245.362.266.521-.027.1-.011.2-.016.309-.027.053.037.112.106.165.1.505-.037.941.027,1.138.6.053.154.234.2.362.011h.394a13.03,13.03,0,0,0,3.7-.527,1.327,1.327,0,0,1,1.074.027c-.037.245-.069.489-.106.734-.372.106-.755.2-1.122.314-.266.09-.606.186-.532.559a.564.564,0,0,0,.713.468c.085.394.277.665.734.628a.183.183,0,0,1,.207.181,6.946,6.946,0,0,0-1.628.144,2.346,2.346,0,0,0-1.516.729,4.386,4.386,0,0,0-1.1,3.085c.064.415.128.835.191,1.25-.606.122-1.154-.223-1.75-.213-.106-.191-.282-.069-.426-.085-.106-.128-.271-.085-.4-.138-.42-.484-.936-.314-1.436-.213-.84,0-1.681.043-2.516,0-.755-.037-1.489.245-2.245.133-.037-.42.431-.564.5-.926a.474.474,0,0,0,.495-.282c.021-.053-.122-.229-.207-.239a5.585,5.585,0,0,0-1.149-.122c-.33.016-.378.388-.537.612-.128.176.011.271.176.33,0,.154-.09.186-.223.213-.543.112-.665.34-.495.894q-1.564.646-3.128,1.3c-.25-.463.218-.846.149-1.3a3.214,3.214,0,0,0-.032-.59,7.949,7.949,0,0,0-.378-3.213,2.653,2.653,0,0,0-1.691-1.957ZM21.21,28.89c.372-.335.255-.8-.3-1.032-.064-.282-.559-.319-.415-.723a1.485,1.485,0,0,1,.931-.309,17.018,17.018,0,0,1,3.25.234,18.652,18.652,0,0,1,1.872.16,4.586,4.586,0,0,0,2.011.186,8.5,8.5,0,0,0,2.436-.053c-.809-.128-1.628-.053-2.431-.17-.787-.1-1.559-.3-2.335-.452-1.16-.234-2.346-.176-3.511-.335a13.623,13.623,0,0,1-1.628-.122c-.644-.17-.947-.016-1.011.654a3.561,3.561,0,0,0,.016.41c-.037.106-.069.213-.106.319a3.031,3.031,0,0,0-.734,1.644c-.037.25-.277.665.021.729.346.074.356-.41.457-.681.181-.484.106-1.059.473-1.484a1.5,1.5,0,0,1,.59.1c.037.25.255.463.186.739-.133.138-.053.319-.08.479-.016.106-.176.277.069.309.16.021.234-.112.245-.261.011-.117,0-.234,0-.351Zm8.936-.181a1.231,1.231,0,0,0-1.16-.83c-.106-.011-.255-.043-.3.117a.231.231,0,0,0,.154.293c.457.08.707.521,1.154.606.122,0,.255.011.154-.181ZM18.115,24.262c.027.048.053.059.09.011.207-.005.415-.011.617-.021a21.365,21.365,0,0,1,4.08.324c.638.074,1.271,0,1.894.1,1.617.255,3.255.3,4.883.4a8.02,8.02,0,0,1,1.122.08,1.087,1.087,0,0,0,.973-.133,8.931,8.931,0,0,0-2.005-.351c-1.665-.149-3.34-.181-5.011-.335-.739-.069-1.484-.165-2.223-.266a17.44,17.44,0,0,0-3.6-.351.879.879,0,0,0-.824.537Zm7.447,3.979a.845.845,0,0,0,.633.255c.133-.011.3.016.356-.133s-.069-.282-.186-.383c-.383-.314-.569,0-.8.261Z" transform="translate(-7.647 -9.661)" fill="#d6dcad"/><path d="M62.749,44.724a2.82,2.82,0,0,1-1.665.027c.138-.277-.005-.553-.011-.83.229-.255.1-.495-.053-.718-.122-.181-.287-.106-.441-.021-.181-.122-.1-.319-.128-.484a.19.19,0,0,0,.09-.255c-.059.043-.117.085-.181.128l-.218-.112c-.016-.122-.138-.08-.2-.122.059-.266.309-.527,0-.8a5.432,5.432,0,0,1,2.41-.415c.3.032.484-.1.479-.372a14.744,14.744,0,0,0,.117-1.527,4.383,4.383,0,0,1,.3-1.378.2.2,0,0,1,.218-.17c.431.074.941-.08,1.218.431a1.537,1.537,0,0,1-.181,1.479c-.176.191-.362.367-.543.553-.2.2-.064.3.122.367.4.128.734-.128.83-.6.085-.431.186-.851.277-1.282a.758.758,0,0,0-.229-.856,2.035,2.035,0,0,0-1.1-.463c-.436-.053-.66-.255-.633-.729.032-.548.021-1.1.027-1.649.25.005.527-.048.6.309-.064.495.25.713.649.83a3.168,3.168,0,0,0,3.516-1.346,1.262,1.262,0,0,0,.75-.128c.09-.064.3-.117.2-.234-.293-.33.027-.574.064-.856.117,0,.239-.005.356-.011a1.254,1.254,0,0,0,1.1.287c.362.378.915.351,1.319.644.037.032.074.069.112.1.069.069.138.138.207.2.372.84.293.979-.633,1.027-.441.021-.878.032-1.319.048-.213,0-.468-.165-.612.138a3.307,3.307,0,0,0-.963.176,1.913,1.913,0,0,0-1.473.968,16.011,16.011,0,0,0-1.617,3.952c-.117.032-.117.117-.09.213-.074.17-.154.335-.229.505-.059.016-.1.043-.08.112l-.239.511c-.138.239-.282.479-.42.718-.3.319-.819.42-.915.941-.314.186-.814.165-.819.7Z" transform="translate(-28.057 -15.676)" fill="#d6dcad"/><path d="M66.787,32.308c-.074-.351-.351-.3-.6-.309,0-1.048-.005-2.09-.016-3.138a.866.866,0,0,1,.112-.383.872.872,0,0,0,.628-.606,4.14,4.14,0,0,1,1.638-.612.516.516,0,0,1-.106.67,1.872,1.872,0,0,0-1.463,1.25,2.389,2.389,0,0,0,.335,2.457c.112.117.191.277.436.229a2.781,2.781,0,0,0-.324-.654,1.7,1.7,0,0,1,.154-2.218,6.953,6.953,0,0,0,.979-1.037,4.837,4.837,0,0,0,1.144-.42A1.59,1.59,0,0,1,70.723,28.8a5.229,5.229,0,0,1,0,1.654,2.2,2.2,0,0,1-2.112,2.154A6.651,6.651,0,0,1,66.8,32.3Zm1.436-1.479c.181.2.314.367.468.516a.157.157,0,0,0,.229-.011c.059-.059.021-.128-.027-.176-.165-.191-.255-.511-.67-.324Z" transform="translate(-30.973 -12.76)" fill="#fdfdfd"/><path d="M58.618,26.644a.846.846,0,0,0-.112.383c.011,1.048.011,2.09.016,3.138-.005.548.005,1.1-.027,1.649-.027.473.191.676.633.729a2.053,2.053,0,0,1,1.1.463.766.766,0,0,1,.229.856c-.085.426-.191.851-.277,1.282-.1.479-.431.734-.83.6-.186-.059-.319-.165-.122-.367.181-.181.367-.362.543-.553a1.524,1.524,0,0,0,.181-1.479c-.277-.511-.793-.356-1.218-.431a.2.2,0,0,0-.218.17,4.351,4.351,0,0,0-.3,1.378,13.407,13.407,0,0,1-.117,1.527c0,.282-.186.4-.479.372a5.423,5.423,0,0,0-2.41.42.327.327,0,0,0-.1.011,8.407,8.407,0,0,1-3.356.223c-.181-.032-.309.048-.207.271a.811.811,0,0,0,.367.41.471.471,0,0,0,.314.42c.037.1.074.2.117.3-.021.074.005.1.08.085a3.6,3.6,0,0,1,1.75,1.261c-.782.059-1.277-.532-1.787-.931a10.856,10.856,0,0,1-1.516-1.766c.069-.4-.378-.527-.457-.872a9.757,9.757,0,0,0-.489-1.293c-.037-.378-.08-.755-.117-1.133-.021-.34.186-.351.436-.3l.032.606a12.011,12.011,0,0,0,.926,2.229c.112.176.25.33.5.239a4.4,4.4,0,0,0,2.92-.08,15.282,15.282,0,0,0,1.957-.691c.574-.207.963-.41,1.138-1.005a2.562,2.562,0,0,0,.085-1.723c.191.059.287-.016.3-.207a19.149,19.149,0,0,1,.2-3.617,2.948,2.948,0,0,0,.09-1.559,4.978,4.978,0,0,1-.383-2.053c.032-.378-.069-.649-.516-.622a1.952,1.952,0,0,0-1.649-1.154c0-.176-.3-.282-.106-.5h0a20.15,20.15,0,0,1,1.989.83c.574.351.6.888.7,1.41a6.622,6.622,0,0,0,.218,1.064Z" transform="translate(-23.309 -10.92)" fill="#3c362f"/><path d="M67.323,32.041a6.27,6.27,0,0,0,1.814.314A2.216,2.216,0,0,0,71.248,30.2a5.077,5.077,0,0,0,0-1.654,1.573,1.573,0,0,0-1.021-1.266c-.282-.516-.75-.271-1.154-.277a4.14,4.14,0,0,0-1.638.612,1.692,1.692,0,0,1,1.537-.92,2.29,2.29,0,0,1,2.691,2.463c.016.314.138.6.133.9-.223.463-.053,1.011-.309,1.468a3.156,3.156,0,0,1-3.516,1.346c-.4-.122-.713-.335-.649-.83Z" transform="translate(-31.509 -12.493)" fill="#3c362f"/><path d="M50.734,24.567a.564.564,0,0,1-.713-.468c-.074-.372.266-.468.532-.559.367-.122.75-.213,1.122-.314a2.455,2.455,0,0,1,.941-.117.828.828,0,0,0,.809-.314c.654-.016,1.1-.6,1.745-.654a6.159,6.159,0,0,1,1.362-.133v.255c-.287.069-.718-.08-.723.447V22.7c-.245.053-.569-.181-.723.2-.415.016-.856-.048-1.106.42-.032.059-.138.08-.218.106a5.01,5.01,0,0,1-1.8.229,1.19,1.19,0,0,0-1.234.9Z" transform="translate(-23.409 -10.295)" fill="#3c362f"/><path d="M28.459,21.5a24.736,24.736,0,0,0-2.809-.1.157.157,0,0,1-.181-.138c.186-.16.468.048.681-.176-.463-.309-1.266.032-1.431-.761a18.263,18.263,0,0,1,4.165.447c.532.1,1.1-.016,1.633.133.138.037.271.032.3.207-.17.144-.351.08-.527.027A7.715,7.715,0,0,0,28.167,21c-.122,0-.266.027-.282.165-.016.181.16.133.261.144.144.011.277.016.309.2Z" transform="translate(-11.571 -9.511)" fill="#6b5f57"/><path d="M31.248,22.09c-.027-.181-.165-.186-.309-.2-.106-.011-.277.037-.261-.144.011-.138.154-.165.282-.165a7.715,7.715,0,0,1,2.128.144c.181.053.362.117.527-.027.819.027,1.638.059,2.457.08a.908.908,0,0,1,.441.112c-.154.234-.468-.037-.622.191-.1.011-.2.016-.309.027a.833.833,0,0,0-.521.027,14.67,14.67,0,0,0-1.809.048h.005c-.676-.032-1.346-.069-2.021-.1Z" transform="translate(-14.36 -10.1)" fill="#3c362f"/><path d="M40.48,22.365c.154-.234.468.043.622-.191.75,0,1.5-.016,2.25,0,.356.005.713.069,1.069.106.186.016.213.144.2.293-.543.053-1.085.112-1.633.165-.261-.08-.489.085-.745.085-.16,0-.17.133-.1.261-.128.181-.309.144-.362-.011-.2-.574-.633-.638-1.138-.6-.053,0-.112-.064-.165-.1Z" transform="translate(-18.948 -10.376)" fill="#c5beb9"/><path d="M44.807,22.812c.543-.053,1.085-.112,1.633-.165a12.876,12.876,0,0,1,2.479-.287c.2.027.441-.032.42.293h-.2a1.37,1.37,0,0,0-1.074-.027,12.818,12.818,0,0,1-3.7.527c.027-.277.388-.112.452-.346Z" transform="translate(-20.764 -10.455)" fill="#6b5f57"/><path d="M75.165,34.458c.255-.457.085-1.005.309-1.468a.233.233,0,0,1,.266.016c.085.117.165.245.34.207a.311.311,0,0,1,.1.021c-.037.282-.356.527-.064.856.1.117-.112.176-.2.234a1.181,1.181,0,0,1-.75.128Z" transform="translate(-35.181 -15.426)" fill="#c5beb9"/><path d="M53.241,22.94h.2c.3.011.6.037.9.021a.545.545,0,0,1,.543.282.828.828,0,0,1-.809.314,2.455,2.455,0,0,0-.941.117c.037-.245.069-.489.106-.734Z" transform="translate(-24.874 -10.738)" fill="#fdfdfd"/><path d="M24.245,20.308c.165.793.963.452,1.431.761-.213.223-.495.016-.681.176-.34.09-.654-.112-1-.1-.176.011-.309-.239-.287-.473l.032-.207A.412.412,0,0,1,24.245,20.308Z" transform="translate(-11.096 -9.494)" fill="#3c362f"/><path d="M81.448,34.873c-.069-.069-.138-.138-.207-.2-.037-.032-.074-.069-.112-.1-.4-.293-.957-.266-1.319-.644.207-.234.41.043.612,0a3.557,3.557,0,0,0,1.138.106C81.5,34.309,81.9,34.65,81.448,34.873Z" transform="translate(-37.358 -15.836)" fill="#3c362f"/><path d="M10.542,20.606c-.2.138-.016.4-.2.585-.346-.452-.16-.973-.207-1.452,0-.053.021-.053.261.053l.144.814Z" transform="translate(-4.739 -9.223)" fill="#3c362f"/><path d="M79.453,33.7c-.2.037-.4-.239-.612,0a1.275,1.275,0,0,1-1.1-.287,2.049,2.049,0,0,1,1.713.293Z" transform="translate(-36.389 -15.603)" fill="#6b5f57"/><path d="M76.59,32.485c-.176.037-.255-.09-.34-.207.069-.271-.059-.569.122-.878.293.346.2.729.218,1.09Z" transform="translate(-35.692 -14.698)" fill="#6b5f57"/><path d="M62.27,22.256V22a.934.934,0,0,1,.888.149c-.287.223-.6.106-.888.106Z" transform="translate(-29.148 -10.278)" fill="#6b5f57"/><path d="M83.384,26.26c.138.08.117.2.09.324C83.272,26.521,83.219,26.42,83.384,26.26Z" transform="translate(-38.985 -12.292)" fill="#6b5f57"/><path d="M23.578,20.63l-.032.207a.2.2,0,0,1-.186-.2c.074,0,.149,0,.223-.005Z" transform="translate(-10.934 -9.657)" fill="#c5beb9"/><path d="M31.85,5.733c.149-.074.229-.011.255.138C31.978,5.9,31.914,5.823,31.85,5.733Z" transform="translate(-14.909 -2.669)" fill="#6b5f57"/><path d="M30.3,74.125a8.462,8.462,0,0,0-2.59-.112c-1.154.005-2.309-.043-3.457.032-1.394.09-2.8.064-4.186.213-1.223.133-2.489-.085-3.676.388a.376.376,0,0,1-.154,0,29.71,29.71,0,0,0-4.654.394,30.6,30.6,0,0,1-4.362.133c.606-1.665,1.005-3.394,1.484-5.09a6.975,6.975,0,0,0,.378-2.191c-.016-.3.239-.388.378-.574A3.49,3.49,0,0,1,11.853,68a20.26,20.26,0,0,0,5.67,2.112c.713.122,1.324.521,2.053.649a14.292,14.292,0,0,0,2.516.17,34.74,34.74,0,0,0,4.074-.1,6.622,6.622,0,0,0,1.676-.495,5.083,5.083,0,0,1,3.91.138,4.328,4.328,0,0,0,1.149.234,3.3,3.3,0,0,1,.761.128c2.213.777,4.484.585,6.766.548a23.817,23.817,0,0,0,3.335-.537,4.281,4.281,0,0,0,1.33-.378.447.447,0,0,0,.218-.713,1.785,1.785,0,0,0-1.473-.989.886.886,0,0,1-.436-.144,2.093,2.093,0,0,0-1.41-.394c-.207.021-.351-.122-.521-.2.043-.133.085-.266.133-.4.617-.133,1.117-.569,1.745-.67.351-.106.8.074,1.032-.372a.836.836,0,0,0,.426-.835.98.98,0,0,1,.489-.388,9.939,9.939,0,0,1,.319,2.128,3.166,3.166,0,0,0,.128.739,10.335,10.335,0,0,0,.436,2.878,7.313,7.313,0,0,0,.6,2.085c.021.574.495,1.048.383,1.654a3.559,3.559,0,0,1-1.931.3c-1.4-.106-2.793-.34-4.2-.431a22.841,22.841,0,0,1-3.7-.362,7.372,7.372,0,0,0-1.644-.011c-1.787-.2-3.59.011-5.378-.234Z" transform="translate(-3.38 -30.599)" fill="#fdfdfd"/><path d="M60.191,64.04a4.658,4.658,0,0,1,2.707.181c.452.2.888.426,1.335.633.074.032.2.027.17.138a.3.3,0,0,1-.16.181,13.106,13.106,0,0,1-3.67,1.064c-.537.043-1.074.165-1.617.218-.293-.181-.58-.245-.835.064a9.148,9.148,0,0,0-1.548.431c-.2-.218-.676.027-.734-.431a16.425,16.425,0,0,1,5.021-.835c.473-.011.947-.085,1.426-.1.346-.005.559-.293.809-.574a6.573,6.573,0,0,0-2.867-.856C60.218,64.12,60.2,64.078,60.191,64.04Z" transform="translate(-26.138 -29.923)" fill="#3c362f"/><path d="M10.7,51.978c.319-.2.766-.027,1.048-.346.064.011.128.016.191.027.09.021.181.027.223-.08.085-.021.17-.048.261-.069a.168.168,0,0,0,.261-.074l.154-.016a.179.179,0,0,0,.261-.074,2.063,2.063,0,0,1,.824-.106c.66-.133,1.33.032,1.995-.064.346-.048.585.218.883.309l.654.606c-.016.234.234.383.2.622-.245.17-.415.09-.676-.059a4.223,4.223,0,0,0-2.543-.883c-.356-.085-.723-.234-1.037.112-.766-.085-1.431.378-2.176.4-.255.005-.468.021-.521-.293Z" transform="translate(-5.009 -23.952)" fill="#3c362f"/><path d="M11.843,60.891a4.22,4.22,0,0,0-.638,1.074.436.436,0,0,0,.011.468c-.383.282-.7-.069-1.048-.117-.293-.043-.617-.3-.83.138-.378-.191-.878-.388-.878-.819,0-.4.548-.463.878-.66A4.066,4.066,0,0,1,10.6,60.7c.037.229.213.181.362.181h.878Z" transform="translate(-3.96 -28.413)" fill="#6b5f57"/><path d="M56.351,70.98c.862.17,1.713.372,2.58.5,1.117.16,2.239.277,3.34.532.165.037.33.074.489.106.011.064.016.133.027.2a29.131,29.131,0,0,1-4.809-.394c-.638-.1-1.287-.1-1.931-.144a.211.211,0,0,0-.2-.191c-.1-.016-.277.043-.271-.128,0-.138.149-.154.266-.17a.976.976,0,0,0,.5-.3Z" transform="translate(-26.016 -33.225)" fill="#3c362f"/><path d="M54.6,69.955a1,1,0,0,1-.5.3c-.117.021-.266.037-.266.17,0,.176.17.117.271.128a.211.211,0,0,1,.2.191,8.353,8.353,0,0,1-2.277-.505c-.213-.048-.245-.181-.1-.383a2.565,2.565,0,0,1,2.048-1.069c.059.457.532.207.734.431-.388.191-.5.42-.106.729Z" transform="translate(-24.264 -32.2)" fill="#6b5f57"/><path d="M10.11,63.779c.213-.436.537-.181.83-.138.346.048.66.4,1.048.117,1.309.457,2.532,1.128,3.851,1.559a10.523,10.523,0,0,1,1.665.739,19.825,19.825,0,0,1-3.676-1.128c-1.2-.521-2.532-.6-3.718-1.154Z" transform="translate(-4.732 -29.736)" fill="#3c362f"/><path d="M15.287,56.388a5.75,5.75,0,0,1,2.2.335c.165.032.489.128.463.4-.021.245-.266.33-.5.362-.069.011-.138.016-.2.027.064-.34-.154-.468-.42-.505a1.73,1.73,0,0,1-.67-.207.576.576,0,0,0-.872.2L12.5,56.978c.032-.128.069-.261.1-.388a7.918,7.918,0,0,1,2.266-.207c.138.266.277.271.426.011Z" transform="translate(-5.851 -26.377)" fill="#3c362f"/><path d="M13.729,59.76h-.878c-.149,0-.324.043-.362-.181a12.55,12.55,0,0,1,2.952-.968.78.78,0,0,0,.223-.106.986.986,0,0,0,.543-.106c.25-.117.553-.239.734.144a14.333,14.333,0,0,1-2.479.846,1.351,1.351,0,0,0-.734.383Z" transform="translate(-5.846 -27.281)" fill="#3c362f"/><path d="M47.489,68.438a.952.952,0,0,1,.287-.84,4.608,4.608,0,0,0,1.069-1.936c.053-.16.1-.335.314-.351a1.3,1.3,0,0,1-.191,1.186,3.867,3.867,0,0,1-1.479,1.947Z" transform="translate(-22.223 -30.571)" fill="#3c362f"/><path d="M34.9,72.77c-.027-.309-.34-.16-.479-.293-.064-.059-.144-.1-.112-.2a.138.138,0,0,1,.2-.09c.766.4,1.548.011,2.324.069.324.027.59.069.537.489l-1.957.128c-.069-.255-.176-.266-.314-.048-.069-.021-.133-.037-.2-.059Z" transform="translate(-16.058 -33.781)" fill="#3c362f"/><path d="M19.39,57.914c-.176-.378-.484-.261-.734-.144a.977.977,0,0,1-.543.106c.245-.447-.362-.335-.394-.6a.577.577,0,0,1,.872-.2,1.73,1.73,0,0,0,.67.207c.266.037.484.165.42.505-.059.144-.191.1-.3.117Z" transform="translate(-8.294 -26.664)" fill="#6b5f57"/><path d="M77.985,64.251a1.034,1.034,0,0,0-.489.388c-.064-.559-.644-1.027-.314-1.66l.4.032a.463.463,0,0,0,.41.394c0,.282-.005.564-.011.846Z" transform="translate(-36.08 -29.48)" fill="#d6dcad"/><path d="M23.591,53.247c.032-.239-.218-.388-.2-.622.245-.5.484-.293.723.005v.4c-.011.106-.027.207-.037.314-.165-.032-.324-.064-.489-.1Z" transform="translate(-10.948 -24.492)" fill="#d6dcad"/><path d="M8.576,57.452a.677.677,0,0,1-.681,0,.862.862,0,0,0-.75-.032c-.213.08-.362.027-.585-.25H8.555c.005.1.011.186.016.282Z" transform="translate(-3.071 -26.76)" fill="#8a90c2"/><path d="M10.336,57.279c-.005-.1-.011-.186-.016-.282.42-.064.84-.133,1.255-.2-.032.128-.069.261-.1.388C11.1,57.22,10.714,57.247,10.336,57.279Z" transform="translate(-4.831 -26.587)" fill="#6b5f57"/><path d="M62.826,64.14c.011.037.027.08.037.117a3.732,3.732,0,0,1-1.394.1C61.89,64.023,62.38,64.241,62.826,64.14Z" transform="translate(-28.773 -30.023)" fill="#6b5f57"/><path d="M15.77,52.3c.314-.346.676-.191,1.037-.112C16.483,52.444,16.116,52.268,15.77,52.3Z" transform="translate(-7.382 -24.38)" fill="#6b5f57"/><path d="M76.162,67.67c-.229.447-.681.271-1.032.372C75.38,67.665,75.832,67.835,76.162,67.67Z" transform="translate(-35.167 -31.675)" fill="#d6dcad"/><path d="M70.865,73.1a1.936,1.936,0,0,1,.8.053c-.293.154-.521.277-.809.165,0-.074,0-.149.005-.218Z" transform="translate(-33.169 -34.211)" fill="#8a90c2"/><path d="M70.037,73.12c0,.074,0,.149-.005.218a3.764,3.764,0,0,1-.915-.021c-.011-.064-.016-.133-.027-.2Z" transform="translate(-32.34 -34.226)" fill="#6b5f57"/><path d="M60.13,68.619c.255-.314.543-.245.835-.064A1.36,1.36,0,0,1,60.13,68.619Z" transform="translate(-28.146 -32.018)" fill="#6b5f57"/><path d="M71.564,69.629c-.043.133-.085.266-.133.4-.112-.016-.2-.059-.176-.2a.253.253,0,0,1,.3-.2Z" transform="translate(-33.352 -32.592)" fill="#d6dcad"/><path d="M17.366,56.411c-.149.266-.287.255-.426-.011C17.084,56.4,17.222,56.405,17.366,56.411Z" transform="translate(-7.929 -26.4)" fill="#6b5f57"/><path d="M35.81,73.264c.138-.218.245-.207.314.048A.275.275,0,0,1,35.81,73.264Z" transform="translate(-16.762 -34.222)" fill="#6b5f57"/><path d="M57.41,62.305c.037-.027.074-.053.112-.085C57.511,62.284,57.479,62.316,57.41,62.305Z" transform="translate(-26.873 -29.124)" fill="#6b5f57"/><path d="M32.649,50.376c.016.176.181.218.271.33.16.191.4.41-.016.59a1.219,1.219,0,0,0-1.032.761,1.729,1.729,0,0,0,1.059-.617c.17-.069.25.037.319.165a3.853,3.853,0,0,1,.4,1.293c.08.516-.367.59-.7.67a.958.958,0,0,0-.606.282c.452.053.872.122,1.3.138.266.011.4.074.335.346-.117.516.287,1.027,0,1.537-.234-.059-.457-.213-.739-.037.309.5.851.888.739,1.569-.324.213-.367.6-.543.894-.085.149-.181.33-.356.287s-.42-.027-.468-.309a.7.7,0,0,0-.165-.309c-.117-.128-.149-.42-.378-.351s-.085.3-.112.452c-.059.324-.282.117-.436.005-.037-.271.043-.649-.489-.532.16.133.287.245.239.447l-.367.128a9.517,9.517,0,0,0-.941-1.4c-.16-.356-.553-.457-.787-.729a.512.512,0,0,0-.117-.527,3.174,3.174,0,0,1-.479-1.16,6.841,6.841,0,0,0,.016-.872.942.942,0,0,1,.441-.957c.138-.09.239-.207.165-.314-.4-.574-.074-1.069.138-1.58a.659.659,0,0,0,.388-.527.065.065,0,0,0,.005-.085c.133.011.271.027.4.037.074.176-.027.383.1.548A2.008,2.008,0,0,0,30.1,51.9a1.891,1.891,0,0,0,.245-1.309l.128-.739a2.232,2.232,0,0,1,2.181.505Zm-1.867,4.766a.2.2,0,0,0-.117.181,1.96,1.96,0,0,1-.67.324c-.085.021-.191.027-.154.138a.546.546,0,0,0,.378.367c.17.053.383.032.415-.17.032-.186.213-.266.234-.436.25,0,.681.346.612-.3-.069-.207.207-.548-.2-.622-.388-.074-.479.207-.511.516Zm-.984.324a1.63,1.63,0,0,0-.074-1.537C29.628,54.493,29.256,54.993,29.8,55.466Z" transform="translate(-13.378 -23.28)" fill="#fdfdfd"/><path d="M49.5,45.908a10.6,10.6,0,0,0,1.516,1.766c.516.394,1.011.989,1.787.931.207.17.681.112.527.6-.521.245-1.043.489-1.559.739a.85.85,0,0,1-.112.027c-.043.027-.08.053-.122.08a1.439,1.439,0,0,0-1.144.479,10.028,10.028,0,0,1-1.495.021,1.045,1.045,0,0,1,.112-.777c.447-.16.3-.548.266-.835a10.738,10.738,0,0,0-1.441-4.053c-.027-.372-.314-.505-.6-.617-.112-.043-.234-.048-.277-.181.367-.255.356-.415-.059-.872a4.994,4.994,0,0,0,1.037-1.027c-.059.394.17.463.489.426.037.378.08.755.117,1.133a2.279,2.279,0,0,0,.952,2.165Z" transform="translate(-21.953 -19.749)" fill="#c5beb9"/><path d="M31.138,49.4c-.133-.011-.271-.027-.4-.037-.106-.324.09-.511.319-.66a2.285,2.285,0,0,1,2.973.729c.059.1.165.229.09.33-.133.186-.309-.064-.468,0a2.232,2.232,0,0,0-2.181-.505c-.122.016-.3-.08-.324.144Z" transform="translate(-14.372 -22.666)" fill="#3c362f"/><path d="M46.313,40.544a4.994,4.994,0,0,1-1.037,1.027c-.239.074-.479.149-.713.223a.56.56,0,0,0-.527-.053c-.41.149-.606-.021-.606-.441.324-.011.649-.011.973-.037.745-.064,1.117-.686,1.59-1.128.2-.186.176-.41-.112-.628-.319-.239-.819-.309-.91-.809.165-.069.255.144.415.112a2.169,2.169,0,0,1,1.021.814.738.738,0,0,0,.144.415l-.239.511Z" transform="translate(-20.329 -18.107)" fill="#3c362f"/><path d="M48.479,47.26a10.77,10.77,0,0,1,1.441,4.053c.043.282.181.67-.266.835-.282-.069-.25-.3-.234-.5a5.268,5.268,0,0,0-.67-2.7c-.207-.441-.17-.973-.447-1.4-.069-.106.064-.213.176-.277Z" transform="translate(-22.601 -22.122)" fill="#3c362f"/><path d="M24.75,49.883v-.4c.309-1,.612-1.995.92-2.995.133-.213.383-.346.426-.622.2.011.213-.271.426-.271.016.043.053.1.043.122-.495.9-.691,1.915-1.122,2.835a2.208,2.208,0,0,0-.069.915c-.027.548-.064.58-.617.426Z" transform="translate(-11.585 -21.34)" fill="#3c362f"/><path d="M28.554,41.584a8.69,8.69,0,0,1-1.745.1c-.106-.069-.213-.144-.319-.213a5.141,5.141,0,0,1,2.8-.356c.17.011.34.037.505.059.037.282-.144.287-.351.3C29.144,41.493,28.825,41.36,28.554,41.584Z" transform="translate(-12.4 -19.227)" fill="#3c362f"/><path d="M38.079,62.7c.112-.681-.431-1.069-.739-1.569.282-.176.505-.016.739.037a5.334,5.334,0,0,1,.388.952.769.769,0,0,1-.133.676c-.138.17-.191,0-.25-.1Z" transform="translate(-17.478 -28.576)" fill="#3c362f"/><path d="M28.335,58.34a3.121,3.121,0,0,0,.479,1.16.512.512,0,0,1,.117.527,1.476,1.476,0,0,1-.846-1.532.264.264,0,0,1,.25-.149Z" transform="translate(-13.127 -27.308)" fill="#3c362f"/><path d="M45.473,44.333c.239-.074.479-.149.713-.223.415.457.426.617.059.872-.234-.085-.468-.165-.7-.255s-.176-.239-.08-.4Z" transform="translate(-21.244 -20.647)" fill="#d6dcad"/><path d="M31.173,62.87a9.245,9.245,0,0,1,.941,1.4c-.1.027-.207.1-.287.069A1.724,1.724,0,0,1,31.173,62.87Z" transform="translate(-14.582 -29.429)" fill="#3c362f"/><path d="M35.839,52.814a1.78,1.78,0,0,1-1.059.617,1.219,1.219,0,0,1,1.032-.761A1.361,1.361,0,0,1,35.839,52.814Z" transform="translate(-16.28 -24.654)" fill="#8a90c2"/><path d="M33.439,64.858c.048-.2-.08-.314-.239-.447.532-.117.447.261.489.532-.112.053-.17-.043-.25-.085Z" transform="translate(-15.54 -30.139)" fill="#c5beb9"/><path d="M30.4,50.35a.659.659,0,0,1-.388.527C29.992,50.595,30.045,50.366,30.4,50.35Z" transform="translate(-14.045 -23.568)" fill="#d6dcad"/><path d="M47.362,33.014a.78.78,0,0,1-.144-.415c.234-.324-.165-.59-.1-.9.383-.053.207-.277.117-.436a2.993,2.993,0,0,1-.261-2.457,2.661,2.661,0,0,0-.468,2.144c-.223.234.048.654-.319.83-.154.032-.25-.181-.415-.112l-.324-.112c-.032-.064-.069-.128-.1-.191-.064-.415-.128-.835-.191-1.25.287.043.277-.207.3-.356a5.528,5.528,0,0,1,.718-1.835,2.956,2.956,0,0,1,1.973-1.394v.559c-.745.441-1.191,1.128-1.005,1.681.335-.926,1.138-1.176,1.856-1.543a.749.749,0,0,0,.7-.324,1.382,1.382,0,0,1,.612.319c.011.085.011.176.117.2-.08.537.33.606.7.718a3.848,3.848,0,0,1,.186,1.963c-.261.213-.468.436-.085.723-.213.367-.255.9-.883.835a.178.178,0,0,0-.112.08,2.591,2.591,0,0,1-1.324.984.936.936,0,0,0,1.032-.112c.154-.1.293-.266.489-.234a.649.649,0,0,0,.729-.431,4.029,4.029,0,0,0,.718-2.261,6.105,6.105,0,0,1,.011-.824c.085-.021.17-.059.181-.154.059-.6.064-1.181-.59-1.5-.4-.926-1.25-.979-2.085-1.059a.183.183,0,0,0-.207-.181c-.457.037-.649-.234-.734-.628a1.184,1.184,0,0,1,1.234-.9,5.131,5.131,0,0,0,1.8-.229c.074-.027.186-.048.218-.106.245-.468.691-.4,1.106-.42a1.258,1.258,0,0,0,.83.3,1.952,1.952,0,0,1,1.649,1.154c-.1.037-.207.08-.309.117a4.289,4.289,0,0,0-2.186-.144c-.277.064-.42.186-.388.4.043.277.261.133.431.09a1.747,1.747,0,0,1,.782-.133,4.529,4.529,0,0,0,1.362.069c.234.229.6,0,.83.223a5.066,5.066,0,0,0,.383,2.053,2.9,2.9,0,0,1-.09,1.559A19.149,19.149,0,0,0,55.9,33c-.106.016-.229-.011-.3.112-.415,0-.83.005-1.245.011a33.766,33.766,0,0,1-4.277.207c-.314,0-.654.176-1.011.207a.353.353,0,0,0-.282.5c-.255.005-.431.3-.718.2l-.032-.606c-.17-.271-.559-.309-.691-.628Zm7.457-6.356a.293.293,0,0,0,.005.266v.2c-.037.064.011.09.048.122.043.516-.16,1.016-.069,1.532v1.266c.335.106.287-.144.287-.324q.008-1.253,0-2.505c0-.144.043-.33-.213-.3a.322.322,0,0,1,0-.1c.41-.048.149-.255.1-.415-.016-.1.043-.282-.112-.271s-.09.165-.069.271c0,.085,0,.176.005.261Zm-2.4.255c0,.106-.085.239.059.3.048.021.128-.005.191-.011-.021-.1-.048-.186-.069-.282,0-.074-.037-.117-.106-.1-.032.005-.048.059-.074.09Zm2.356,4.452a.241.241,0,0,0-.09.223c0,.16-.053.378.2.388s.213-.207.213-.367a.944.944,0,0,0-.059-.234c-.085-.367.16-.787-.133-1.165-.346.4-.117.787-.128,1.154ZM50.123,29.9l.543.1c.128.021.245.016.271-.144.021-.138-.037-.245-.186-.229-.207.016-.441-.1-.617.1a3.023,3.023,0,0,0-1.963-.074,3.326,3.326,0,0,0,1.952.255Zm2.58,1.878c.005-.809.016-1.612.016-2.42,0-.6,0-1.2-.011-1.8,0-.09.037-.229-.133-.207-.053.005-.144.106-.133.128.229.564-.106,1.1-.059,1.66a8.45,8.45,0,0,1-.08,2.926.337.337,0,0,0,.282.42c.207.032.106-.2.144-.309a.253.253,0,0,0-.032-.4Zm.824-1.032a.607.607,0,0,0,.005.713c.059.229-.059.479.074.718.4-.165.245-.527.271-.793.117-1.3-.25-2.622.181-3.915a1.717,1.717,0,0,0,0-.617.211.211,0,0,0-.213-.239.2.2,0,0,0-.2.2c0,.239-.117.447-.117.7.016,1.08,0,2.16-.011,3.239Zm-3.755-2.92a3.307,3.307,0,0,0-.963.431c-.1.043-.245.064-.16.218s.186.048.3.005a3.285,3.285,0,0,1,.936-.335c.106,0,.218-.059.176-.176A.2.2,0,0,0,49.772,27.823Z" transform="translate(-21.139 -11.089)" fill="#fdfdfd"/><path d="M17.425,38.831q1.564-.646,3.128-1.3a6.932,6.932,0,0,0,1.441-.473c.755.112,1.489-.17,2.245-.133.835.043,1.676,0,2.516,0,.457.229.968.08,1.436.213.133.053.3.011.4.138-.016.261-.277.117-.383.229-1.011-.043-2.016-.144-3.016-.277-.032-.048-.069-.053-.106-.005-.138,0-.277,0-.41.005-.457-.043-.926-.255-1.346.117a9.757,9.757,0,0,0-4.239,1.16,32.807,32.807,0,0,0-4.043,2.059c-.309.2-.612.415-.915.628-.1-.048-.1-.144-.128-.229.133-.277.271-.553.4-.83a7.1,7.1,0,0,0,2.479-1.027,4.961,4.961,0,0,0,.532-.266Z" transform="translate(-6.558 -17.283)" fill="#3c362f"/><path d="M24.341,46.661c-.309,1-.612,1.995-.92,2.995-.239-.3-.479-.505-.723-.005l-.654-.606c.245,0,.5-.005.606-.282s-.191-.314-.314-.457c-.085-.106-.128-.245-.266-.3a.565.565,0,0,1,.181-.92,8.349,8.349,0,0,0,1.463-1.112.461.461,0,0,1-.005.149c-.207.521-.207.527.378.537.085,0,.17,0,.255.005Z" transform="translate(-10.256 -21.518)" fill="#c5beb9"/><path d="M22.843,44.891A8.156,8.156,0,0,1,21.38,46a.565.565,0,0,0-.181.92c-.245.064-.495.223-.739,0-.117-.335.16-.5.314-.723a14.4,14.4,0,0,1,1.505-1.282c.16-.112.457-.266.309-.511-.09-.149-.367-.048-.569-.016a5.012,5.012,0,0,0-1.835.9l-.144-.144a6.244,6.244,0,0,1,1.984-1.133,6.894,6.894,0,0,1,.644-.277c.17-.053.372-.122.527.043a.448.448,0,0,1,.032.527c-.106.2-.154.452-.383.574Z" transform="translate(-9.38 -20.444)" fill="#3c362f"/><path d="M19.136,47.8c-.154.218-.431.383-.314.723a1.194,1.194,0,0,0-.489.09,1.064,1.064,0,0,1-1.261-.08c-.144-.133-.351-.106-.532-.133.277-.335.819-.452.835-1.005h0a3.174,3.174,0,0,0,.931-.3c.128.4.144.947.824.713Z" transform="translate(-7.742 -22.047)" fill="#c5beb9"/><path d="M21.18,42.383c-.654.314-1.383.41-2.053.707a20.328,20.328,0,0,0-1.734,1.09c-.144.08-.271.3-.426.138s.1-.245.186-.346a6.341,6.341,0,0,1,3.138-1.59c.255-.08.511-.149.771-.223.1.043.117.133.122.229Z" transform="translate(-7.919 -19.734)" fill="#3c362f"/><path d="M15.009,51.038a2.063,2.063,0,0,0-.824.106c-.128-.112-.191-.021-.261.074a1.532,1.532,0,0,0-.154.021c-.128-.112-.191-.005-.261.074-.085.021-.17.048-.261.069-.037-.09-.122-.09-.2-.1l-.021-.021a.7.7,0,0,1,.239-.441A3.087,3.087,0,0,1,15.009,51.038Z" transform="translate(-6.099 -23.762)" fill="#c5beb9"/><path d="M16.78,47.65c-.016.553-.559.665-.835,1.005H15.28C15.87,48.294,16.152,47.74,16.78,47.65Z" transform="translate(-7.152 -22.304)" fill="#8a90c2"/><path d="M43.906,37.953c.032.064.069.128.1.191-.383.207-.771.021-1.138-.032-.271-.037-.543-.043-.809-.09.032-.1.064-.186.1-.282C42.751,37.729,43.3,38.075,43.906,37.953Z" transform="translate(-19.688 -17.665)" fill="#3c362f"/><path d="M24.822,42.2a.23.23,0,0,0-.122-.229c.277-.266.622-.2.952-.176.106.069.213.144.319.213A1.868,1.868,0,0,1,24.822,42.2Z" transform="translate(-11.562 -19.554)" fill="#6b5f57"/><path d="M19.041,46.79a3.174,3.174,0,0,1-.931.3c.191-.457.707-.388,1.027-.638l.144.144c-.08.064-.154.133-.234.2Z" transform="translate(-8.477 -21.743)" fill="#6b5f57"/><path d="M31.54,37.52c.42-.372.894-.16,1.346-.117a2.752,2.752,0,0,1-1.346.117Z" transform="translate(-14.763 -17.461)" fill="#6b5f57"/><path d="M41.529,37.644c-.032.1-.064.186-.1.282-.239-.043-.527.181-.713-.138.106-.112.367.032.383-.229C41.247,37.575,41.417,37.453,41.529,37.644Z" transform="translate(-19.06 -17.57)" fill="#6b5f57"/><path d="M12.851,51.9c-.064-.011-.128-.016-.191-.027.011-.122.09-.165.2-.181l.021.021C12.867,51.775,12.862,51.834,12.851,51.9Z" transform="translate(-5.926 -24.195)" fill="#c5beb9"/><path d="M34.84,37.451c.037-.048.074-.043.106.005A.678.678,0,0,1,34.84,37.451Z" transform="translate(-16.308 -17.514)" fill="#6b5f57"/><path d="M16.758,27.23a2.683,2.683,0,0,1,1.691,1.957,7.96,7.96,0,0,1,.378,3.213c-.362.053-.463-.144-.415-.452a8.147,8.147,0,0,0-.463-3.011,2.158,2.158,0,0,0-.931-1.255A.469.469,0,0,1,16.758,27.23Z" transform="translate(-7.843 -12.746)" fill="#3c362f"/><path d="M13.606,34.735c.011-.915-.463-1.729-.521-2.638-.032-.436-.495-.447-.824-.559a.258.258,0,0,0,0-.09c.122-.362.378-.463.67-.229a1.421,1.421,0,0,1,.606,1.021c.069.691.271,1.367.394,2.053.043.223.027.468-.314.447Z" transform="translate(-5.739 -14.554)" fill="#3c362f"/><path d="M12.067,31.76a.132.132,0,0,1,0,.09c-.1.122-.149.053-.2-.043l.191-.048Z" transform="translate(-5.556 -14.866)" fill="#8a90c2"/><path d="M65.211,53.426c.011-.543.505-.521.819-.707A3.924,3.924,0,0,1,68,52.128c.027,0,.059-.032.085-.048h1.447c-.181.277-.484.3-.543.548-.58.324-1.16.644-1.745.968a1.706,1.706,0,0,1-2.048-.17Z" transform="translate(-30.519 -24.378)" fill="#fdfdfd"/><path d="M69.589,44.028c.074-.17.154-.335.229-.505.122-.032.245-.064.09-.213a15.692,15.692,0,0,1,1.617-3.952A1.913,1.913,0,0,1,73,38.39a.47.47,0,0,1-.255.367,5.15,5.15,0,0,0-1.628,2.362,21.818,21.818,0,0,1-1.293,3.314c-.154.234-.255.41-.543.213l.239-.511.08-.112Z" transform="translate(-32.429 -17.97)" fill="#3c362f"/><path d="M80.139,39.121c.021.245-.186.394-.25.6-.277.064-.245.67-.713.41-.324-.5-.957-.606-1.34-1.027-.005-.074-.085-.191.053-.2.681-.005,1.362,0,2.043.011.122,0,.16.117.207.2Z" transform="translate(-36.421 -18.211)" fill="#8a90c2"/><path d="M77.723,39.28c.388.42,1.016.527,1.34,1.027-.027.378-.128.532-.479.207a9.2,9.2,0,0,0-.809-.612A.359.359,0,0,1,77.723,39.28Z" transform="translate(-36.308 -18.386)" fill="#3c362f"/><path d="M68.829,51.753c-.027.016-.059.048-.085.048a3.924,3.924,0,0,0-1.973.59c.09-.521.617-.622.915-.941.3-.154.628.016.947-.059.282-.064.181.207.2.362Z" transform="translate(-31.254 -24.051)" fill="#3c362f"/><path d="M78.07,37.909c.144-.3.4-.138.612-.138C78.533,38.053,78.277,37.882,78.07,37.909Z" transform="translate(-36.543 -17.659)" fill="#8a90c2"/><path d="M81.943,81.435c.117-.606-.362-1.074-.383-1.654.191-.085-.053-.255.069-.351a2.673,2.673,0,0,1,.633,1.931C82.188,81.6,82.055,81.451,81.943,81.435Z" transform="translate(-38.177 -37.18)" fill="#3c362f"/><path d="M64.866,10.62h-.941c-.085,0-.186-.027-.176-.133a.187.187,0,0,1,.133-.133,1.284,1.284,0,0,1,1,.122Z" transform="translate(-29.84 -4.827)" fill="#3c362f"/><path d="M78.44,63.425a.463.463,0,0,1-.41-.394c.255-.069.394.037.436.293a.71.71,0,0,0-.027.1Z" transform="translate(-36.525 -29.495)" fill="#c5beb9"/><path d="M56.8,53.035c.16-.489-.319-.431-.527-.6a3.562,3.562,0,0,0-1.75-1.261c-.027-.027-.053-.059-.08-.085-.037-.1-.074-.2-.117-.3l.319-.239a1.859,1.859,0,0,0,.686.021,1.934,1.934,0,0,0,2.181-.2l.218.112c.032.043.059.085.09.128.032.165-.053.362.128.484a1.157,1.157,0,0,1-.005.138c-.181-.016-.367-.1-.521.069-.293-.08-.42.074-.5.335-.048.154-.037.293.106.351a.476.476,0,0,0,.6-.106c.043-.053.085-.106.122-.16.287-.064.133-.3.181-.463.255.117.314.4.505.574,0,.277.144.548.011.83l-1.649.383Z" transform="translate(-25.431 -23.577)" fill="#fdfdfd"/><path d="M55.61,56.9c.043-.027.08-.053.122-.08C55.69,56.847,55.653,56.873,55.61,56.9Z" transform="translate(-26.03 -26.597)" fill="#3c362f"/><path d="M48.152,28.7A2.98,2.98,0,0,0,46.178,30.1a5.645,5.645,0,0,0-.718,1.835c-.032.149-.016.4-.3.356a4.395,4.395,0,0,1,1.1-3.085,2.358,2.358,0,0,1,1.516-.729,7.243,7.243,0,0,1,1.628-.144c.835.08,1.681.133,2.085,1.059a2.743,2.743,0,0,1,.415,1.654c0,.277-.032.553-.011.824a4.042,4.042,0,0,1-.718,2.261.649.649,0,0,1-.729.431c-.2-.032-.335.133-.489.234a.939.939,0,0,1-1.032.112,2.591,2.591,0,0,0,1.324-.984c.027-.037.08-.085.112-.08.628.069.676-.468.883-.835.027-.239.059-.484.085-.723a3.854,3.854,0,0,0-.186-1.963c.149-.479-.261-.723-.457-1.053-.043-.069-.144.027-.176.112l-.181.016a1.307,1.307,0,0,0-.612-.319c-.032-.037-.064-.074-.1-.112-.021-.207-.186-.266-.346-.293a1.886,1.886,0,0,0-1.112.027Z" transform="translate(-21.13 -13.257)" fill="#3c362f"/><path d="M19.68,26.972a.885.885,0,0,1,.824-.537,17.44,17.44,0,0,1,3.6.351c.739.1,1.479.2,2.223.266,1.665.154,3.34.186,5.011.335a8.931,8.931,0,0,1,2.005.351,1.087,1.087,0,0,1-.973.133,8.02,8.02,0,0,0-1.122-.08c-1.628-.112-3.266-.154-4.883-.4-.622-.1-1.261-.021-1.894-.1a20.944,20.944,0,0,0-4.08-.324c-.207.016-.415.016-.617.021a.066.066,0,0,0-.09-.011Z" transform="translate(-9.212 -12.365)" fill="#3c362f"/><path d="M23.373,32.248a3.561,3.561,0,0,1-.016-.41c.064-.67.367-.824,1.011-.654A13.54,13.54,0,0,0,26,31.306c1.165.16,2.351.1,3.511.335.777.154,1.543.356,2.335.452v.223a4.593,4.593,0,0,1-2.011-.186,18.52,18.52,0,0,0-1.872-.16,17.018,17.018,0,0,0-3.25-.234,1.444,1.444,0,0,0-.931.309c-.138.064-.2.266-.4.207Z" transform="translate(-10.932 -14.567)" fill="#3c362f"/><path d="M27.691,36.334a6.831,6.831,0,0,1-1.441.473c-.165-.553-.048-.777.495-.894.133-.027.223-.059.223-.213.3-.553.814-.223,1.229-.293-.069.362-.543.505-.5.926Z" transform="translate(-12.255 -16.558)" fill="#fdfdfd"/><path d="M22.651,34.055c-.367.431-.293,1-.473,1.484-.1.266-.112.755-.457.681-.3-.064-.059-.479-.021-.729a3.031,3.031,0,0,1,.734-1.644c.16-.021.191.1.223.213Z" transform="translate(-10.098 -15.842)" fill="#6b5f57"/><path d="M28.682,34.867c-.415.074-.926-.255-1.229.293-.165-.053-.3-.154-.176-.33.16-.223.2-.6.537-.612a5.585,5.585,0,0,1,1.149.122c.085.016.229.191.207.239a.47.47,0,0,1-.495.282Z" transform="translate(-12.746 -16.016)" fill="#3c362f"/><path d="M40.851,35.247c-.447-.085-.7-.527-1.154-.606a.24.24,0,0,1-.154-.293c.048-.16.191-.128.3-.117a1.238,1.238,0,0,1,1.16.83c-.053.059-.1.117-.154.181Z" transform="translate(-18.506 -16.019)" fill="#6b5f57"/><path d="M39.3,33.163V32.94c.8.117,1.622.043,2.431.17a8.494,8.494,0,0,1-2.436.053Z" transform="translate(-18.391 -15.419)" fill="#6b5f57"/><path d="M33.675,34.6c.229-.255.415-.574.8-.261.117.1.239.223.186.383s-.218.122-.356.133a.861.861,0,0,1-.633-.255Z" transform="translate(-15.76 -16.011)" fill="#3c362f"/><path d="M24.9,35.061c.069-.282-.149-.489-.186-.739l.112-.112c.564.239.681.7.3,1.032Z" transform="translate(-11.566 -16.013)" fill="#3c362f"/><path d="M24.106,33.573l-.112.112a1.482,1.482,0,0,0-.59-.1c-.027-.117-.059-.229-.223-.213.037-.106.069-.213.106-.319.2.059.266-.144.4-.207-.144.4.351.436.415.723Z" transform="translate(-10.85 -15.377)" fill="#c5beb9"/><path d="M39.416,37.03c-.468-.133-.984.016-1.436-.213C38.485,36.71,39,36.54,39.416,37.03Z" transform="translate(-17.778 -17.178)" fill="#c5beb9"/><path d="M24.929,35.81l.229.181c0,.117.011.234,0,.351-.011.149-.09.282-.245.261-.239-.032-.085-.2-.069-.309.027-.16-.053-.34.08-.479Z" transform="translate(-11.599 -16.762)" fill="#c5beb9"/><path d="M44.42,23.211c-.059.234-.426.069-.452.346h-.394c-.069-.128-.059-.261.1-.261C43.931,23.3,44.159,23.131,44.42,23.211Z" transform="translate(-20.378 -10.854)" fill="#8a90c2"/><path d="M38.93,22.591a.833.833,0,0,1,.521-.027C39.292,22.857,39.116,22.836,38.93,22.591Z" transform="translate(-18.223 -10.549)" fill="#c5beb9"/><path d="M42.01,35.991c.053-.059.1-.122.154-.181C42.265,36,42.132,35.991,42.01,35.991Z" transform="translate(-19.664 -16.762)" fill="#c5beb9"/><path d="M19.68,27.448a.066.066,0,0,1,.09.011C19.733,27.507,19.707,27.5,19.68,27.448Z" transform="translate(-9.212 -12.842)" fill="#c5beb9"/><path d="M35.545,22.73h0Z" transform="translate(-16.636 -10.64)" fill="#6b5f57"/><path d="M53.4,49.545a.811.811,0,0,1-.367-.41c-.1-.223.027-.3.207-.271a8.407,8.407,0,0,0,3.356-.223c.032-.005.069-.005.1-.011.3.266.053.532,0,.8a4.915,4.915,0,0,1-1.947.165,1.773,1.773,0,0,0-.729-.037c-.207,0-.41,0-.617-.005Z" transform="translate(-24.805 -22.763)" fill="#fdfdfd"/><path d="M56.252,50.285A4.915,4.915,0,0,0,58.2,50.12c.064.043.186,0,.2.122a1.933,1.933,0,0,1-2.181.2c.011-.053.021-.106.027-.154Z" transform="translate(-26.316 -23.46)" fill="#3c362f"/><path d="M61.125,51.777a1.158,1.158,0,0,1,.005-.138c.149-.085.314-.165.441.021.149.223.282.463.053.718-.191-.17-.255-.457-.505-.574l.005-.021Z" transform="translate(-28.609 -24.128)" fill="#c5beb9"/><path d="M60.82,50.575c-.032-.043-.059-.085-.09-.128.059-.043.117-.085.181-.128a.188.188,0,0,1-.09.255Z" transform="translate(-28.427 -23.554)" fill="#3c362f"/><path d="M70.367,47.64c.154.149.032.181-.09.213C70.25,47.757,70.244,47.672,70.367,47.64Z" transform="translate(-32.888 -22.3)" fill="#6b5f57"/><path d="M82.29,35.22c.037.032.074.069.112.1C82.364,35.289,82.327,35.252,82.29,35.22Z" transform="translate(-38.519 -16.486)" fill="#6b5f57"/><path d="M69.785,48.99l-.08.112C69.683,49.033,69.721,49,69.785,48.99Z" transform="translate(-32.625 -22.932)" fill="#6b5f57"/><path d="M69.1,28.567a6.691,6.691,0,0,1-.979,1.037,1.692,1.692,0,0,0-.154,2.218,2.683,2.683,0,0,1,.324.654c-.245.048-.324-.112-.436-.229a2.389,2.389,0,0,1-.335-2.457,1.881,1.881,0,0,1,1.463-1.25.755.755,0,0,0,.117.027Z" transform="translate(-31.521 -13.359)" fill="#3c362f"/><path d="M70.547,27.932a.755.755,0,0,0-.117-.027.516.516,0,0,0,.106-.67c.4.011.872-.239,1.154.277a4.615,4.615,0,0,1-1.144.42Z" transform="translate(-32.967 -12.724)" fill="#c5beb9"/><path d="M70.03,33.92c.41-.186.505.133.67.324.043.053.08.117.027.176a.156.156,0,0,1-.229.011c-.154-.149-.287-.314-.468-.516Z" transform="translate(-32.78 -15.851)" fill="#8a90c2"/><path d="M58.73,41.61a2.593,2.593,0,0,1-.085,1.723c-.176.6-.564.8-1.138,1.005a14.772,14.772,0,0,1-1.957.691,4.367,4.367,0,0,1-2.92.08c-.245-.319-.665-.622-.106-1.027.245.138.388-.362.622-.122.33.34.431.117.532-.176.282-.106.229-.266.021-.372a1.091,1.091,0,0,0-.441-.037c-.33-.138-.649-.223-.835.213-.468-.053-.665-.282-.564-.66.043-.16.1-.319.149-.479,1.495-.064,3.027.213,4.463-.415.335-.144.713,0,1.021-.223a2.385,2.385,0,0,0,1.245-.191V41.61Zm-1.75,1.447c-.128-.17-.25-.1-.372,0a.47.47,0,0,0,.144.617c.17.106.33.255.441-.085.09-.271.154-.484-.218-.548v.011Zm-2.287,1c.011.122-.037.335.229.287.186-.032.452-.069.394-.346-.037-.176-.09-.426-.356-.42-.3.005-.266.245-.271.484ZM56.012,42.9a1.446,1.446,0,0,0-.149.005,2.655,2.655,0,0,0,.149,1.33Z" transform="translate(-24.262 -19.477)" fill="#fdfdfd"/><path d="M51.969,44.824c-.559.4-.138.707.106,1.027-.25.09-.383-.064-.5-.239a12.012,12.012,0,0,1-.926-2.229c.287.1.457-.2.718-.2h.043l.043.016c-.053.16-.106.319-.149.479-.1.378.1.6.564.66.032.165.064.33.1.495Z" transform="translate(-23.709 -20.212)" fill="#d6dcad"/><path d="M50.9,47.275a2.3,2.3,0,0,1-.952-2.165A9.067,9.067,0,0,1,50.44,46.4c.08.346.532.473.457.872Z" transform="translate(-23.36 -21.115)" fill="#6b5f57"/><path d="M49.086,41.215c.128.319.516.356.691.628-.25-.048-.457-.037-.436.3-.319.037-.548-.027-.489-.426l.239-.511Z" transform="translate(-22.863 -19.29)" fill="#d6dcad"/><path d="M63.635,26.576c.1-.037.207-.08.309-.117.452-.021.553.245.516.622-.234-.229-.6,0-.83-.223v-.282Z" transform="translate(-29.784 -12.384)" fill="#6b5f57"/><path d="M60.39,23.829a1.238,1.238,0,0,1-.83-.3c.154-.378.479-.144.723-.2C60.092,23.547,60.39,23.654,60.39,23.829Z" transform="translate(-27.879 -10.909)" fill="#6b5f57"/><path d="M53.75,50.345c.207,0,.41,0,.617.005.005.059.011.112.016.17l-.319.239a.458.458,0,0,1-.314-.42Z" transform="translate(-25.16 -23.563)" fill="#c5beb9"/><path d="M64.805,41.332c.064-.122.191-.1.3-.112-.016.191-.112.266-.3.207l.005.011Z" transform="translate(-30.332 -19.294)" fill="#c5beb9"/><path d="M54.554,51.71c.027.027.053.059.08.085C54.565,51.806,54.533,51.779,54.554,51.71Z" transform="translate(-25.533 -24.205)" fill="#c5beb9"/><path d="M13.02,51.916c.011-.064.016-.122.027-.186.074.016.16.011.2.1-.048.106-.133.1-.223.08Z" transform="translate(-6.094 -24.214)" fill="#6b5f57"/><path d="M13.93,51.694c.069-.08.138-.181.261-.074A.17.17,0,0,1,13.93,51.694Z" transform="translate(-6.52 -24.141)" fill="#6b5f57"/><path d="M14.72,51.507c.064-.1.133-.191.261-.074A.174.174,0,0,1,14.72,51.507Z" transform="translate(-6.89 -24.05)" fill="#6b5f57"/><path d="M31.99,60.463c-.021.17-.2.25-.234.436-.037.2-.245.223-.415.17a.536.536,0,0,1-.378-.367c-.037-.112.069-.117.154-.138a2.116,2.116,0,0,0,.67-.324l.207.223Z" transform="translate(-14.49 -28.197)" fill="#3c362f"/><path d="M30.614,59.157c-.548-.473-.17-.973-.074-1.537A1.63,1.63,0,0,1,30.614,59.157Z" transform="translate(-14.194 -26.971)" fill="#3c362f"/><path d="M32.73,59.435c.032-.309.122-.59.511-.516.41.074.128.415.2.622-.234-.037-.473-.069-.707-.106Z" transform="translate(-15.32 -27.574)" fill="#6b5f57"/><path d="M31.635,51.328a1.858,1.858,0,0,1-.245,1.309,2.04,2.04,0,0,1,.138-1.356l.1.048Z" transform="translate(-14.672 -24.003)" fill="#6b5f57"/><path d="M32.632,59.9c.234.032.473.069.707.106.064.649-.362.3-.612.3l-.207-.223a.191.191,0,0,1,.117-.181Z" transform="translate(-15.222 -28.038)" fill="#8a90c2"/><path d="M31.717,50.712l-.1-.048c-.122-.165-.016-.372-.1-.548.032-.229.2-.128.324-.144C31.8,50.217,31.759,50.462,31.717,50.712Z" transform="translate(-14.754 -23.387)" fill="#c5beb9"/><path d="M48.036,38.095c-.069.309.324.569.1.9a2.195,2.195,0,0,0-1.021-.814c.367-.181.09-.6.319-.83.218.239.3.585.612.75Z" transform="translate(-22.052 -17.483)" fill="#d6dcad"/><path d="M52.061,42.371l-.043-.016h-.043a.356.356,0,0,1,.282-.5c.351-.032.7-.2,1.011-.207a33.766,33.766,0,0,0,4.277-.207v.287c-.3.223-.686.08-1.021.223-1.436.628-2.968.356-4.463.415Z" transform="translate(-24.317 -19.397)" fill="#3c362f"/><path d="M60.89,33.323c.005-1.08.027-2.16.011-3.239,0-.245.122-.457.117-.7a.2.2,0,0,1,.2-.2c.138,0,.207.106.213.239a2,2,0,0,1,0,.617c-.431,1.293-.064,2.612-.181,3.915-.027.271.133.628-.271.793-.133-.245-.016-.489-.074-.718a.561.561,0,0,0-.005-.713Z" transform="translate(-28.502 -13.663)" fill="#6b5f57"/><path d="M59.013,35.4c-.043.112.064.34-.144.309a.336.336,0,0,1-.282-.42,8.322,8.322,0,0,0,.08-2.926c-.048-.559.287-1.1.059-1.66-.011-.021.08-.122.133-.128.165-.021.128.112.133.207.005.6.011,1.2.011,1.8,0,.809-.011,1.612-.016,2.42-.133.144-.149.282.032.4Z" transform="translate(-27.418 -14.312)" fill="#3c362f"/><path d="M61.371,26.481v.282a4.512,4.512,0,0,1-1.362-.069,1.759,1.759,0,0,0-.782.133c-.17.043-.394.186-.431-.09-.032-.213.112-.335.388-.4a4.348,4.348,0,0,1,2.186.144Z" transform="translate(-27.52 -12.29)" fill="#3c362f"/><path d="M48.289,36.2c-.314-.16-.394-.511-.612-.75a2.641,2.641,0,0,1,.468-2.144,2.993,2.993,0,0,0,.261,2.457C48.5,35.927,48.672,36.15,48.289,36.2Z" transform="translate(-22.305 -15.592)" fill="#3c362f"/><path d="M50.739,30.162c-.718.367-1.521.617-1.856,1.543-.186-.559.261-1.239,1.005-1.681a2.5,2.5,0,0,1,.718-.074c.048.069.09.144.138.213Z" transform="translate(-22.862 -14.013)" fill="#3c362f"/><path d="M63.279,31.619c-.09-.516.112-1.021.069-1.532-.016-.043-.032-.08-.048-.122v-.2l.032.011.032-.021c.255-.032.213.154.213.3V32.56c0,.181.043.431-.287.324a.077.077,0,0,0,0-.128V32.14c.011-.011.032-.027.032-.032a.2.2,0,0,0-.037-.074v-.309c.011-.011.037-.021.032-.032a.314.314,0,0,0-.032-.074Z" transform="translate(-29.609 -13.927)" fill="#3c362f"/><path d="M51.518,29.447a2.342,2.342,0,0,0-.718.074v-.559a1.886,1.886,0,0,1,1.112-.027c.165.027.324.08.346.293-.245.074-.489.149-.739.223Z" transform="translate(-23.779 -13.511)" fill="#d6dcad"/><path d="M52.772,35.023a3.326,3.326,0,0,1-1.952-.255,3.058,3.058,0,0,1,1.963.074c0,.059,0,.122-.005.181Z" transform="translate(-23.788 -16.209)" fill="#3c362f"/><path d="M55.145,30.2c.037-.085.133-.181.176-.112.2.33.606.574.457,1.053-.367-.112-.777-.181-.7-.723a.183.183,0,0,0,.064-.223Z" transform="translate(-25.778 -14.073)" fill="#d6dcad"/><path d="M52.82,31.462a.2.2,0,0,1,.287.144c.043.117-.069.17-.176.176a3.285,3.285,0,0,0-.936.335c-.112.037-.218.144-.3-.005s.059-.17.16-.218a3.307,3.307,0,0,1,.963-.431Z" transform="translate(-24.187 -14.717)" fill="#3c362f"/><path d="M57.475,31.994a2.752,2.752,0,0,0-.415-1.654c.654.319.649.9.59,1.5-.011.1-.09.133-.181.154Z" transform="translate(-26.709 -14.202)" fill="#d6dcad"/><path d="M62.47,41.728v-.287c.415,0,.83-.005,1.245-.011v.106a2.431,2.431,0,0,1-1.245.191Z" transform="translate(-29.241 -19.393)" fill="#6b5f57"/><path d="M54.485,35.107c0-.059,0-.122.005-.181.176-.2.41-.08.617-.1.149-.016.207.09.186.229-.027.16-.144.165-.271.144l-.543-.1Z" transform="translate(-25.501 -16.293)" fill="#d6dcad"/><path d="M63.175,37.114c.016-.367-.218-.761.128-1.154.293.378.048.8.133,1.165-.085,0-.176-.005-.261-.011Z" transform="translate(-29.542 -16.832)" fill="#3c362f"/><path d="M63.148,38.13a2.136,2.136,0,0,1,.261.011.943.943,0,0,1,.059.234c0,.16.053.383-.213.367-.25-.011-.191-.229-.2-.388A.23.23,0,0,1,63.148,38.13Z" transform="translate(-29.515 -17.848)" fill="#8a90c2"/><path d="M52.15,29.763c.245-.074.489-.149.739-.223.032.037.064.074.1.112a.754.754,0,0,1-.7.324c-.048-.069-.09-.144-.138-.213Z" transform="translate(-24.411 -13.827)" fill="#c5beb9"/><path d="M56.49,35.78c-.027.239-.059.484-.085.723C56.022,36.216,56.229,35.993,56.49,35.78Z" transform="translate(-26.304 -16.748)" fill="#d6dcad"/><path d="M60.789,36.96a.548.548,0,0,1,.005.713A.6.6,0,0,1,60.789,36.96Z" transform="translate(-28.4 -17.3)" fill="#8a90c2"/><path d="M59.281,39.294c-.181-.117-.17-.255-.032-.4A.249.249,0,0,1,59.281,39.294Z" transform="translate(-27.685 -18.204)" fill="#d6dcad"/><path d="M58.949,29.761c.021.1.048.186.069.282-.064.005-.138.037-.191.011-.144-.069-.059-.2-.059-.3.059,0,.117.005.176.011Z" transform="translate(-27.497 -13.926)" fill="#6b5f57"/><path d="M63.486,28.79c.043.16.309.367-.1.415l-.069-.154c0-.085,0-.176-.005-.261h.176Z" transform="translate(-29.634 -13.476)" fill="#3c362f"/><path d="M63.455,28.551h-.176c-.027-.106-.09-.261.069-.271s.1.17.112.271Z" transform="translate(-29.603 -13.237)" fill="#6b5f57"/><path d="M55.051,30.32a.185.185,0,0,1-.064.223c-.112-.027-.106-.117-.117-.2l.181-.016Z" transform="translate(-25.684 -14.192)" fill="#6b5f57"/><path d="M58.976,29.678c-.059,0-.117-.005-.176-.011.021-.032.043-.085.074-.09.069-.016.106.027.106.1Z" transform="translate(-27.523 -13.843)" fill="#8a90c2"/><path d="M63.292,29.27l.069.154a.322.322,0,0,0,0,.1l-.032.021-.032-.011A.278.278,0,0,1,63.292,29.27Z" transform="translate(-29.612 -13.701)" fill="#6b5f57"/><path d="M63.29,34.03s.027.048.037.074c0,.005-.021.021-.032.032V34.03Z" transform="translate(-29.625 -15.929)" fill="#6b5f57"/><path d="M63.29,35.39a.077.077,0,0,1,0,.128Z" transform="translate(-29.625 -16.566)" fill="#6b5f57"/><path d="M63.3,33.26a.369.369,0,0,1,.032.074c0,.005-.021.021-.032.032Z" transform="translate(-29.63 -15.569)" fill="#6b5f57"/><path d="M63.317,30.15c.016.043.032.08.048.122C63.323,30.24,63.28,30.214,63.317,30.15Z" transform="translate(-29.631 -14.113)" fill="#6b5f57"/><path d="M19.86,46.07c.08-.064.154-.133.234-.2a4.93,4.93,0,0,1,1.835-.9c.2-.032.479-.133.569.016.149.245-.149.4-.309.511a14.5,14.5,0,0,0-1.505,1.282C20,47.017,19.988,46.48,19.86,46.07Z" transform="translate(-9.296 -21.022)" fill="#d6dcad"/><path d="M60.02,52.5c-.043.053-.08.106-.122.16a.469.469,0,0,1-.6.106c-.138-.059-.149-.2-.106-.351.074-.261.2-.415.5-.335.106.144.4.138.335.42Z" transform="translate(-27.696 -24.369)" fill="#3c362f"/><path d="M60.475,52.428c.069-.282-.229-.277-.335-.42.154-.17.346-.085.521-.069,0,0-.005.027-.005.021-.048.16.106.4-.181.463Z" transform="translate(-28.151 -24.295)" fill="#d6dcad"/><path d="M54.926,50.513c-.005-.059-.011-.112-.016-.17a1.773,1.773,0,0,1,.729.037c-.011.053-.021.106-.027.154A1.985,1.985,0,0,1,54.926,50.513Z" transform="translate(-25.703 -23.555)" fill="#8a90c2"/><path d="M53.041,45.553c-.032-.165-.064-.33-.1-.495.186-.431.5-.346.835-.213-.011.191.027.335.271.271.122-.032.122.069.149.144-.1.293-.2.516-.532.176-.234-.239-.378.255-.622.122Z" transform="translate(-24.78 -20.941)" fill="#c5beb9"/><path d="M57.209,45.784c0-.234-.032-.479.271-.484.261,0,.319.245.356.42.059.277-.207.314-.394.346-.261.048-.218-.165-.229-.287Z" transform="translate(-26.778 -21.204)" fill="#6b5f57"/><path d="M59.552,44.04v1.335a2.78,2.78,0,0,1-.149-1.33A1.444,1.444,0,0,0,59.552,44.04Z" transform="translate(-27.802 -20.614)" fill="#6b5f57"/><path d="M61.312,44.31c.372.064.309.282.218.548-.112.335-.271.191-.441.085C61.062,44.693,61.381,44.571,61.312,44.31Z" transform="translate(-28.594 -20.741)" fill="#6b5f57"/><path d="M54.929,45.345c-.021-.074-.027-.176-.149-.144-.25.069-.282-.08-.271-.271a1.191,1.191,0,0,1,.441.043c.207.106.266.261-.021.372Z" transform="translate(-25.514 -21.031)" fill="#d6dcad"/><path d="M61.137,44.31c.069.261-.255.383-.223.633a.459.459,0,0,1-.144-.617h.372v-.011Z" transform="translate(-28.419 -20.741)" fill="#8a90c2"/><path d="M61.192,44.237H60.82C60.942,44.136,61.07,44.062,61.192,44.237Z" transform="translate(-28.469 -20.657)" fill="#6b5f57"/></g><g transform="translate(-11 -6)"><text transform="translate(117 44)" fill="#8a90c2" font-size="12" font-family="Montserrat-SemiBold, Montserrat" font-weight="600"><tspan x="0" y="0">Garage</tspan></text><text transform="translate(117 63)" font-size="18" font-family="Montserrat-Bold, Montserrat" font-weight="700"><tspan x="0" y="0">Raemaekers</tspan></text></g></g></svg>