<svg xmlns="http://www.w3.org/2000/svg" width="17.4" height="17.032" viewBox="0 0 17.4 17.032"><path d="M22.271,8.466A4.332,4.332,0,0,1,16.13,13.9l-1.2,1.309.855.858.511-.511a.668.668,0,0,1,.946,0l4.144,4.186a.668.668,0,0,1,0,.946L19.5,22.579a.668.668,0,0,1-.946,0l-4.144-4.186a.668.668,0,0,1,0-.946l.467-.467-.815-.817-5.73,6.26a1.337,1.337,0,0,1-1.891,0l-.473-.473a1.337,1.337,0,0,1,0-1.891l6.528-5.467L8.157,10.246H6.787L5.2,7.7,6.478,6.42,9.084,8.015,9.1,9.356l4.386,4.4,1.276-1.068A4.337,4.337,0,0,1,19.9,6.107l-2.81,2.771,2.365,2.365,2.815-2.776ZM7.532,20.728a.669.669,0,1,0,0,.946A.669.669,0,0,0,7.532,20.728Z" transform="translate(-5.203 -5.785)"/></svg>