<svg xmlns="http://www.w3.org/2000/svg" width="14.112" height="16.128" viewBox="0 0 14.112 16.128"><path d="M14.112,11.34V.756A.754.754,0,0,0,13.356,0H3.024A3.025,3.025,0,0,0,0,3.024V13.1a3.025,3.025,0,0,0,3.024,3.024H13.356a.754.754,0,0,0,.756-.756v-.5a.762.762,0,0,0-.28-.589,7.025,7.025,0,0,1,0-2.353A.751.751,0,0,0,14.112,11.34ZM4.032,4.221a.19.19,0,0,1,.189-.189H10.9a.19.19,0,0,1,.189.189v.63a.19.19,0,0,1-.189.189H4.221a.19.19,0,0,1-.189-.189Zm0,2.016a.19.19,0,0,1,.189-.189H10.9a.19.19,0,0,1,.189.189v.63a.19.19,0,0,1-.189.189H4.221a.19.19,0,0,1-.189-.189Zm7.982,7.875H3.024a1.008,1.008,0,0,1,0-2.016h8.99A11.34,11.34,0,0,0,12.014,14.112Z"/></svg>